<?xml version="1.0" standalone="no"?>
<!DOCTYPE svg PUBLIC "-//W3C//DTD SVG 20010904//EN"
 "http://www.w3.org/TR/2001/REC-SVG-20010904/DTD/svg10.dtd">
<svg version="1.0" xmlns="http://www.w3.org/2000/svg"
 width="2922.000000pt" height="1286.000000pt" viewBox="0 0 2922.000000 1286.000000"
 preserveAspectRatio="xMidYMid meet">

<g transform="translate(0.000000,1286.000000) scale(0.100000,-0.100000)"
fill="#000000" stroke="none">
<path d="M6335 12823 c-126 -16 -307 -68 -397 -114 -34 -17 -38 -24 -38 -57 0
-103 60 -237 167 -372 60 -76 63 -81 27 -53 -49 39 -161 155 -201 208 -17 22
-46 70 -64 108 -20 40 -40 67 -49 67 -19 0 -90 -57 -90 -73 0 -34 162 -212
305 -336 50 -42 50 -43 10 -20 -111 63 -270 190 -325 258 -17 23 -40 41 -50
41 -10 0 -34 -20 -54 -44 l-36 -45 49 -58 c57 -69 127 -132 193 -175 26 -17
46 -33 44 -35 -13 -13 -203 104 -271 165 -52 48 -73 41 -112 -38 -17 -36 -29
-67 -26 -70 2 -3 50 -22 106 -42 114 -41 112 -44 -18 -23 -49 8 -97 15 -106
15 -19 0 -84 -154 -74 -177 4 -12 13 -14 38 -8 17 4 50 11 72 16 22 5 105 11
185 14 l145 4 -120 -19 c-132 -21 -312 -65 -332 -82 -14 -11 -20 -44 -26 -128
l-3 -55 125 62 c148 72 225 95 111 32 -95 -52 -158 -98 -204 -149 -40 -44 -43
-63 -25 -153 l11 -56 81 85 c44 47 101 99 125 116 38 26 32 18 -34 -48 -47
-47 -92 -104 -111 -141 -18 -33 -33 -63 -33 -66 0 -3 35 29 78 71 43 42 98 88
123 101 l44 25 -34 -39 c-72 -83 -141 -220 -141 -281 0 -43 109 -233 161 -280
19 -17 21 -17 45 2 l25 19 4 195 c2 127 9 218 18 261 40 176 111 254 251 274
l48 8 -55 -79 c-113 -163 -167 -308 -167 -449 0 -148 36 -248 145 -410 37 -55
76 -120 87 -145 41 -92 19 -222 -56 -334 -24 -36 -42 -66 -39 -66 14 0 134 93
168 131 l38 42 -5 -41 c-10 -69 -45 -128 -111 -185 -164 -140 -187 -180 -197
-337 -4 -68 -12 -116 -23 -137 -18 -33 -65 -74 -107 -93 -21 -9 -18 -10 19 -5
66 9 137 43 175 85 37 41 46 41 46 0 0 -48 39 -181 75 -255 42 -87 110 -166
168 -194 24 -12 48 -21 53 -21 6 0 -2 26 -18 58 -39 79 -58 154 -58 238 0 124
15 151 172 305 76 74 138 139 138 145 0 5 4 15 9 23 8 12 19 7 56 -28 46 -42
121 -83 180 -97 l30 -7 -44 49 c-52 58 -94 144 -117 237 -15 59 -16 81 -5 170
19 162 29 207 61 276 31 65 52 78 31 19 -6 -18 -14 -67 -17 -108 l-6 -75 21
25 21 25 0 -48 c0 -109 50 -198 140 -248 36 -21 39 -26 45 -78 7 -59 40 -194
54 -219 5 -9 11 20 15 73 8 101 30 165 56 165 9 0 41 -8 71 -19 85 -29 218
-45 267 -32 49 14 71 37 24 26 -92 -20 -279 56 -379 154 -125 122 -149 229
-84 371 34 74 34 74 23 151 -12 86 -2 190 23 240 9 16 34 43 57 59 52 38 25
40 -43 4 -36 -20 -60 -44 -90 -91 -71 -109 -154 -162 -274 -177 l-50 -6 59 25
c89 38 119 66 201 189 41 63 98 135 125 160 64 59 157 104 255 121 42 7 79 15
81 18 3 3 -29 13 -72 22 -58 13 -102 16 -178 12 -123 -7 -195 -25 -304 -77
-75 -36 -255 -150 -267 -170 -3 -5 39 13 92 40 90 44 267 110 296 110 7 0 -36
-20 -95 -44 -293 -120 -452 -268 -563 -522 -38 -87 -48 -76 -35 38 28 251 210
456 541 612 63 29 149 66 192 81 43 15 80 32 84 38 14 22 -36 41 -262 102
-147 40 -225 85 -225 132 0 22 60 81 113 112 44 26 48 31 27 31 -41 0 -136
-28 -193 -56 -82 -42 -166 -112 -216 -181 -41 -56 -47 -61 -58 -46 -17 23 -16
135 1 177 25 61 195 160 351 205 39 11 59 20 45 20 -36 1 -190 -35 -236 -54
-21 -9 -50 -21 -64 -27 l-25 -9 25 26 c47 50 232 125 308 125 23 0 24 3 18 38
-36 208 -4 340 113 465 35 37 101 92 149 123 7 4 -35 148 -45 151 -19 7 -159
-96 -219 -160 -109 -117 -151 -229 -140 -379 3 -49 4 -88 1 -88 -9 0 -75 140
-99 210 -20 61 -24 67 -30 46 -9 -34 16 -148 47 -218 14 -32 22 -58 16 -58 -5
0 -44 35 -86 78 -117 117 -174 240 -172 371 2 117 5 120 182 170 l67 19 1 -81
c1 -45 4 -71 6 -57 14 82 63 145 125 160 l33 8 -40 -1 c-22 0 -53 -2 -70 -4z
m305 -1767 c0 -34 -82 -105 -168 -146 -48 -23 -102 -53 -119 -66 -46 -35 -41
-12 9 42 26 28 72 61 118 84 41 21 93 52 115 68 48 36 45 35 45 18z m-175
-409 c-54 -78 -91 -151 -112 -220 -36 -124 -139 -269 -239 -338 -24 -16 -44
-28 -44 -25 0 3 12 22 26 43 43 63 91 164 129 274 52 150 113 234 220 302 63
40 68 32 20 -36z"/>
<path d="M8125 12677 c-17 -40 -73 -246 -98 -362 -36 -165 -67 -454 -67 -637
l0 -107 29 -15 c37 -20 89 -79 97 -113 4 -14 0 -94 -8 -177 -9 -97 -11 -153
-5 -158 6 -4 12 -161 15 -401 5 -378 6 -394 23 -390 18 5 19 22 19 337 0 344
4 406 25 406 7 0 27 -13 44 -29 l31 -29 0 53 c0 33 5 55 12 57 10 4 5 42 -16
154 -17 88 -26 161 -22 177 8 33 60 93 97 113 28 14 29 17 29 92 0 113 -18
341 -36 467 -30 210 -101 503 -139 574 l-14 26 -16 -38z m22 -1207 c-2 -295
-3 -315 -20 -318 -17 -3 -18 5 -11 155 8 186 0 215 -73 266 -42 30 -43 32 -43
86 0 207 42 535 97 755 l38 151 7 -390 c4 -214 7 -532 5 -705z"/>
<path d="M3037 11994 c-232 -42 -425 -175 -592 -409 -73 -102 -155 -252 -155
-283 0 -20 1 -21 53 -5 131 38 287 143 470 314 59 56 110 99 113 97 2 -3 -53
-61 -123 -129 -159 -155 -267 -228 -400 -273 -54 -18 -98 -37 -98 -42 0 -5 35
-10 79 -12 257 -10 539 168 738 463 72 107 151 262 144 281 -7 18 -122 17
-229 -2z"/>
<path d="M10538 11969 c-43 -25 -5 -120 82 -204 39 -39 40 -40 18 -45 -51 -12
-21 -83 50 -119 21 -10 75 -31 122 -46 47 -15 94 -32 104 -38 19 -9 19 -10 -3
-26 -28 -21 -20 -44 26 -72 26 -17 59 -23 139 -29 58 -4 108 -10 111 -14 4 -3
1 -6 -5 -6 -33 0 -1 -22 106 -72 163 -78 180 -81 117 -22 -27 26 -85 76 -127
111 -43 36 -78 67 -78 69 0 9 20 -7 148 -113 86 -72 128 -101 135 -94 12 12
-6 61 -22 61 -6 0 -24 20 -41 45 -17 25 -38 45 -47 45 -11 0 -13 5 -8 18 17
38 17 82 0 108 -14 21 -23 25 -51 22 -34 -4 -34 -3 -28 28 7 39 -14 84 -52
109 -20 13 -39 16 -75 12 l-49 -6 -39 57 c-61 89 -126 142 -173 142 -16 0 -28
-3 -28 -7 0 -5 -4 -14 -9 -21 -6 -11 -28 -2 -97 38 -79 45 -167 81 -198 80 -6
0 -19 -5 -28 -11z"/>
<path d="M6757 11910 c-27 -5 -51 -11 -53 -13 -3 -3 26 -10 63 -17 134 -25
225 -67 358 -163 39 -28 104 -75 145 -105 95 -68 374 -332 363 -343 -5 -5 -50
-9 -101 -10 -92 -1 -105 -6 -77 -29 8 -7 15 -21 15 -32 0 -19 -1 -19 -31 2
-38 28 -44 22 -23 -24 16 -32 16 -43 5 -99 -7 -35 -9 -76 -5 -92 l7 -30 11 39
c10 36 15 40 77 60 102 33 169 87 233 188 l17 26 -59 50 c-33 27 -70 57 -83
66 l-23 16 42 43 c23 23 42 47 42 53 0 6 -21 16 -47 22 -109 28 -322 145 -517
284 -54 39 -120 79 -146 89 -58 22 -150 30 -213 19z"/>
<path d="M2025 11672 c-97 -81 -221 -214 -278 -299 -105 -157 -163 -332 -174
-524 -12 -211 12 -246 113 -168 133 103 275 288 345 449 56 129 81 236 87 371
5 116 -3 229 -16 229 -4 0 -38 -26 -77 -58z m-88 -279 c-3 -5 -41 -67 -85
-139 -141 -230 -192 -349 -235 -544 -9 -39 -15 -54 -16 -37 -4 90 62 285 145
430 54 95 184 297 191 297 2 0 2 -3 0 -7z"/>
<path d="M11847 11483 c-4 -3 -7 -19 -7 -34 l0 -28 -62 29 c-71 34 -140 39
-176 14 -17 -12 -22 -25 -22 -58 0 -35 9 -56 50 -115 28 -40 50 -75 50 -78 0
-3 -11 -14 -25 -25 -14 -11 -25 -28 -25 -38 0 -26 45 -76 95 -106 65 -37 71
-48 46 -80 -27 -34 -26 -47 3 -81 20 -22 32 -28 65 -27 41 1 42 1 26 -22 -37
-57 -4 -90 78 -80 43 6 49 5 43 -9 -4 -11 4 -28 19 -47 14 -16 25 -37 25 -47
0 -22 35 -55 49 -46 6 3 11 19 11 34 0 38 -44 189 -80 275 -17 39 -28 71 -26
73 6 7 70 -144 101 -240 21 -64 35 -94 41 -86 11 18 18 229 9 276 -6 35 -8 37
-21 18 -19 -26 -18 -6 6 84 24 91 25 142 4 187 -19 41 -47 44 -70 9 -21 -32
-31 -25 -39 28 -24 141 -73 227 -129 227 -18 0 -36 -3 -39 -7z"/>
<path d="M7209 11284 c-37 -40 -81 -63 -140 -73 -51 -10 -49 -10 31 -6 58 2
113 13 175 33 l90 29 -42 22 c-55 28 -84 27 -114 -5z"/>
<path d="M5385 11198 c-8 -20 52 -138 96 -188 l30 -35 -27 45 c-15 25 -43 79
-60 120 -23 51 -35 69 -39 58z"/>
<path d="M7066 10990 c-69 -27 -76 -38 -19 -30 26 4 52 5 57 2 13 -7 -73 -41
-109 -42 l-30 -1 24 -19 c14 -12 38 -20 61 -20 24 0 40 -5 44 -15 7 -20 45
-19 68 2 17 15 18 14 18 -15 0 -36 22 -62 72 -88 72 -36 87 -70 43 -94 -55
-30 -39 -90 25 -90 29 0 43 -6 59 -26 16 -21 23 -23 39 -15 24 13 72 68 72 83
0 6 -22 41 -50 78 -27 37 -69 108 -93 158 -35 73 -46 89 -56 79 -10 -9 -11 -7
-6 14 6 25 4 27 -59 43 -81 20 -99 20 -160 -4z"/>
<path d="M12436 10768 c-20 -31 -35 -102 -36 -165 0 -58 -4 -62 -33 -36 -18
17 -19 17 -33 -2 -30 -41 -10 -144 50 -263 15 -29 31 -65 37 -78 8 -23 7 -25
-13 -24 -43 4 -48 0 -48 -32 1 -46 29 -102 89 -177 34 -42 48 -68 42 -75 -10
-13 42 -194 77 -266 l22 -45 -4 160 -4 160 9 -115 c16 -196 19 -220 34 -220
16 0 25 22 25 63 0 18 4 47 10 66 6 21 6 40 0 51 -8 14 -3 19 29 28 24 8 42
21 49 37 18 38 15 53 -14 80 -15 14 -22 25 -15 25 7 0 23 11 36 25 20 19 25
35 25 71 0 42 -4 51 -40 86 l-41 38 16 77 c28 133 -1 245 -57 227 -21 -6 -30
12 -53 116 -30 133 -74 210 -122 210 -12 0 -29 -10 -37 -22z m141 -820 c-2
-13 -4 -5 -4 17 -1 22 1 32 4 23 2 -10 2 -28 0 -40z"/>
<path d="M2095 10749 c-278 -41 -492 -203 -649 -492 -49 -90 -106 -226 -106
-252 0 -13 6 -16 27 -12 24 4 26 4 10 -8 -26 -19 -21 -25 21 -25 65 0 191 38
271 81 153 82 277 208 385 389 49 83 118 239 130 298 9 36 12 36 -89 21z
m-257 -381 c-88 -115 -189 -219 -267 -277 -66 -48 -159 -96 -169 -86 -3 3 -1
5 5 5 6 0 46 23 89 51 92 60 192 154 311 292 46 53 86 97 89 97 3 0 -23 -37
-58 -82z"/>
<path d="M11640 10746 c-6 -8 -10 -28 -8 -43 3 -27 1 -28 -54 -34 -101 -11
-155 -62 -132 -126 8 -24 47 -56 120 -99 16 -9 17 -14 6 -27 -20 -23 -11 -60
18 -74 14 -7 51 -13 82 -13 58 0 58 0 46 -25 -21 -47 39 -75 88 -40 20 14 21
13 20 -23 -1 -32 2 -37 23 -40 15 -3 33 6 53 24 20 20 31 25 36 17 11 -17 81
-63 96 -63 43 0 14 54 -98 180 -17 19 7 -1 53 -45 82 -79 83 -80 76 -45 -19
95 -64 195 -87 194 -13 -1 -18 12 -23 60 -9 75 -31 133 -57 147 -23 12 -48 -4
-48 -32 0 -37 -20 -28 -55 26 -57 85 -122 119 -155 81z"/>
<path d="M1028 10439 c-121 -160 -229 -401 -264 -586 -19 -104 -15 -274 10
-368 36 -132 111 -283 131 -264 3 4 -2 33 -12 65 -14 46 -18 92 -17 204 0 155
17 247 83 475 38 129 39 109 2 -52 -54 -231 -64 -304 -65 -433 -1 -120 18
-260 34 -260 25 0 134 170 184 286 103 238 130 477 76 690 -21 84 -74 200
-113 248 l-24 29 -25 -34z m-31 -361 c-3 -8 -6 -5 -6 6 -1 11 2 17 5 13 3 -3
4 -12 1 -19z"/>
<path d="M7295 10429 c-27 -16 -58 -27 -68 -25 -14 3 -16 1 -8 -8 8 -10 25
-11 65 -4 30 4 65 7 78 6 19 -3 23 2 26 30 3 28 0 32 -20 31 -13 0 -45 -13
-73 -30z"/>
<path d="M7260 10350 c0 -5 18 -10 39 -10 22 0 43 5 46 10 4 6 -12 10 -39 10
-25 0 -46 -4 -46 -10z"/>
<path d="M8006 10301 c-10 -15 9 -45 39 -65 19 -12 45 -16 101 -15 75 2 76 2
116 -37 22 -22 44 -50 50 -64 l10 -25 10 22 c6 12 7 38 4 58 -6 29 -17 42 -63
73 -51 34 -64 38 -142 43 -47 3 -93 9 -102 13 -10 4 -20 3 -23 -3z"/>
<path d="M7945 10200 c-4 -16 -3 -44 0 -62 l7 -31 13 30 c7 17 23 37 35 46
l21 15 -23 16 c-33 23 -46 20 -53 -14z"/>
<path d="M8127 10139 c-62 -9 -121 -39 -137 -69 -6 -10 -10 -33 -10 -51 l0
-32 43 40 c24 22 61 46 82 53 36 12 42 11 118 -29 48 -24 85 -37 90 -32 17 17
2 44 -33 64 -19 10 -46 30 -61 43 -14 13 -27 23 -30 23 -2 -1 -30 -5 -62 -10z"/>
<path d="M8036 9990 c-20 -23 -40 -38 -45 -36 -13 9 -19 -44 -12 -101 7 -53
65 -154 103 -181 16 -12 18 -32 19 -240 1 -201 2 -224 14 -197 11 23 14 89 15
272 l0 242 48 -22 49 -22 6 -170 c4 -93 7 -217 7 -275 l0 -105 80 80 c92 91
87 61 48 274 -32 174 -117 331 -179 331 -10 0 -34 14 -53 31 -32 27 -38 29
-70 21 -23 -7 -38 -6 -45 1 -7 7 6 20 44 44 l55 34 54 -15 c94 -28 94 -16 1
30 -49 24 -93 44 -96 44 -4 0 -23 -18 -43 -40z"/>
<path d="M12136 9821 c-10 -11 -16 -30 -14 -43 3 -21 -1 -23 -42 -26 -79 -4
-109 -12 -140 -38 -54 -46 -34 -123 44 -169 59 -35 70 -49 51 -65 -23 -19 -18
-57 10 -76 13 -9 51 -18 84 -21 l60 -6 -2 -40 c-2 -36 1 -42 25 -51 23 -8 33
-6 58 12 34 26 34 26 19 -17 -23 -64 35 -79 94 -23 20 19 27 22 27 10 0 -9 16
-25 35 -37 19 -11 35 -25 35 -31 0 -13 47 -13 55 1 8 13 -71 134 -127 195 -22
24 -36 44 -30 44 12 0 91 -86 135 -148 29 -40 32 -42 35 -22 5 31 -37 195 -55
217 -12 15 -15 16 -21 3 -3 -8 -11 31 -17 87 -13 114 -31 153 -70 153 -20 0
-27 -6 -32 -30 -3 -17 -9 -32 -13 -35 -4 -2 -22 23 -41 57 -58 104 -123 143
-163 99z m215 -358 c13 -16 12 -17 -3 -4 -10 7 -18 15 -18 17 0 8 8 3 21 -13z"/>
<path d="M13046 9714 c-22 -21 -60 -98 -76 -151 -15 -49 -22 -53 -38 -18 -12
26 -20 30 -38 17 -37 -25 -44 -125 -19 -277 8 -49 15 -101 15 -114 l0 -24 -26
24 c-25 24 -26 24 -41 4 -26 -35 -12 -137 31 -222 36 -72 44 -99 27 -88 -5 3
-12 2 -14 -2 -8 -13 11 -291 21 -308 9 -17 35 83 72 280 10 55 19 91 19 79 1
-11 -15 -106 -34 -210 -19 -104 -35 -193 -35 -197 0 -5 10 -7 22 -5 16 2 25
14 34 44 7 23 20 53 29 67 10 16 14 34 10 47 -6 19 -4 20 32 14 30 -4 43 -1
61 16 28 26 29 71 2 95 -24 21 -19 29 17 30 62 1 89 104 44 165 -16 22 -21 40
-18 58 10 47 52 161 65 174 19 19 15 76 -7 87 -10 6 -21 8 -24 4 -11 -11 -17
43 -19 192 -3 126 -6 156 -23 190 -23 45 -61 58 -89 29z m-59 -751 c-3 -10 -5
-4 -5 12 0 17 2 24 5 18 2 -7 2 -21 0 -30z"/>
<path d="M6226 9691 c-20 -20 -26 -35 -22 -49 12 -36 115 -102 184 -117 33 -7
32 -7 -22 45 -32 30 -63 71 -75 100 -12 28 -25 50 -29 50 -5 0 -21 -13 -36
-29z"/>
<path d="M7013 9673 c60 -193 47 -298 -54 -430 -52 -67 -166 -166 -229 -198
-100 -51 -288 -72 -480 -55 -402 36 -770 174 -983 369 -55 50 -58 52 -30 16
50 -65 241 -246 331 -314 108 -82 222 -152 343 -211 124 -60 211 -75 418 -67
245 8 390 66 542 217 121 119 184 237 226 415 l18 80 3 -60 c7 -137 -38 -317
-110 -440 -49 -83 -162 -196 -242 -244 -32 -19 -93 -49 -137 -66 l-80 -33 100
-12 100 -13 58 28 c120 59 254 227 323 406 32 84 70 253 71 321 0 23 4 52 9
63 5 13 9 -30 9 -115 1 -207 -30 -312 -174 -579 -30 -57 -53 -106 -50 -109 6
-6 204 14 242 24 18 5 28 23 47 83 59 186 83 401 66 593 -6 66 -8 123 -6 125
7 7 64 -163 82 -243 22 -102 23 -329 1 -434 -8 -41 -14 -77 -12 -78 2 -2 35 6
73 19 l70 22 12 61 c23 118 12 315 -26 454 -2 9 7 -6 21 -34 39 -79 65 -197
72 -326 3 -65 8 -118 9 -118 2 0 22 7 45 17 l42 16 -6 151 c-4 83 -13 182 -22
220 -30 141 -107 258 -204 313 -25 15 -60 40 -78 56 -20 19 -44 31 -65 32 -19
1 -44 7 -56 14 -11 6 -43 14 -69 18 -26 3 -59 14 -73 24 -24 18 -96 38 -134
39 -13 0 -17 -5 -13 -17z m194 -175 c-3 -8 -6 -5 -6 6 -1 11 2 17 5 13 3 -3 4
-12 1 -19z"/>
<path d="M2785 9213 c-148 -206 -272 -380 -274 -385 -2 -6 29 -43 69 -83 85
-85 80 -114 -6 -38 -31 26 -62 52 -69 58 -10 7 -32 -7 -82 -52 -37 -33 -68
-65 -68 -70 0 -5 -53 -78 -119 -162 -117 -150 -121 -154 -306 -295 l-189 -143
346 -6 c191 -4 609 -7 929 -7 l583 0 278 -276 c289 -287 277 -280 -69 44
l-206 192 -839 0 c-550 0 -859 4 -897 11 -31 5 -62 9 -68 7 -6 -2 18 -23 54
-46 l64 -42 841 0 841 0 303 -271 c172 -153 305 -279 307 -291 3 -18 9 -19 65
-13 34 4 65 9 70 12 4 2 -140 149 -320 326 -186 184 -364 369 -414 431 -103
128 -77 62 -364 926 -98 294 -180 538 -184 542 -3 4 -127 -162 -276 -369z
m445 -546 c0 -19 -31 -1 -90 52 l-65 58 -67 -60 c-38 -33 -71 -57 -75 -53 -4
4 28 42 71 85 l77 78 75 -77 c41 -42 74 -79 74 -83z m-684 41 c24 -17 44 -35
44 -40 0 -4 -43 -8 -95 -8 -52 0 -95 4 -95 9 0 11 79 71 93 71 5 0 29 -14 53
-32z m580 2 c24 -17 44 -35 44 -40 0 -6 -42 -10 -95 -10 -53 0 -95 4 -95 9 0
10 79 70 93 71 5 0 28 -14 53 -30z m-548 -92 c7 -7 12 -29 12 -51 0 -21 16
-76 35 -124 37 -88 36 -113 -4 -113 -8 0 -39 -10 -68 -22 l-53 -22 -53 22
c-29 12 -60 22 -69 22 -26 0 -48 11 -48 24 0 7 16 49 35 93 20 47 35 97 35
120 0 21 5 44 12 51 7 7 41 12 83 12 42 0 76 -5 83 -12z m580 0 c7 -7 12 -29
12 -51 0 -21 16 -76 35 -124 37 -88 36 -113 -4 -113 -8 0 -39 -10 -68 -22
l-53 -22 -53 22 c-29 12 -60 22 -69 22 -26 0 -48 11 -48 24 0 7 16 49 35 93
20 47 35 97 35 120 0 21 5 44 12 51 7 7 41 12 83 12 42 0 76 -5 83 -12z m1107
-1238 c3 -5 -1 -10 -10 -10 -9 0 -13 5 -10 10 3 6 8 10 10 10 2 0 7 -4 10 -10z"/>
<path d="M2440 8505 l0 -75 55 0 55 0 0 75 0 75 -55 0 -55 0 0 -75z"/>
<path d="M3020 8505 l0 -75 55 0 55 0 0 75 0 75 -55 0 -55 0 0 -75z"/>
<path d="M10475 9397 l-151 -192 -179 -384 c-131 -278 -186 -385 -201 -391
-11 -5 -26 -25 -33 -47 -7 -21 -15 -45 -17 -53 -3 -9 1 -7 10 4 23 29 20 14
-11 -49 -25 -50 -30 -55 -59 -55 -29 0 -34 -4 -47 -42 -28 -80 -28 -83 -2 -35
22 40 29 46 41 37 18 -16 18 -30 0 -30 -16 0 -35 -42 -41 -90 -6 -46 -13 -49
-39 -17 -17 22 -30 28 -51 25 -25 -3 -32 -12 -57 -72 -37 -90 -35 -96 5 -18
l33 63 24 -26 c13 -14 29 -25 35 -25 8 0 10 -26 7 -87 -4 -74 -9 -93 -29 -120
-14 -18 -29 -30 -34 -27 -10 6 -12 156 -3 191 3 12 15 23 25 25 19 3 19 3 0
15 -19 12 -23 9 -41 -27 -22 -44 -25 -54 -10 -45 6 4 10 -20 10 -65 0 -63 -5
-81 -45 -167 -25 -53 -44 -97 -42 -99 1 -2 142 148 312 332 l310 334 192 588
c192 583 243 742 240 742 -1 0 -70 -87 -152 -193z m-542 -1376 l-28 -36 -3
104 c-2 96 0 110 25 170 l28 66 3 -134 c3 -132 2 -134 -25 -170z m-83 17 c0
-73 -4 -99 -18 -121 -10 -15 -22 -24 -25 -20 -11 11 -8 167 4 202 6 17 17 31
25 31 11 0 14 -20 14 -92z"/>
<path d="M10435 8913 l-227 -678 -56 -75 c-31 -41 -218 -238 -416 -437 -198
-199 -358 -364 -355 -367 2 -2 34 -7 72 -11 64 -7 67 -6 67 14 0 14 88 99 302
291 l303 270 842 0 843 0 70 46 c39 26 70 48 70 49 0 1 -33 -4 -72 -11 -56
-10 -271 -13 -916 -13 l-842 -1 -243 -227 c-364 -341 -370 -344 -48 -26 l296
293 675 1 c371 1 789 5 927 8 l253 6 -185 140 c-183 138 -187 142 -305 292
-66 84 -120 157 -120 162 0 12 -128 131 -142 131 -5 0 -37 -25 -70 -55 -54
-51 -78 -65 -78 -48 0 3 31 40 68 82 l69 76 -271 377 c-149 207 -274 379 -277
382 -3 4 -109 -298 -234 -671z m285 -163 c40 -44 70 -83 67 -87 -3 -3 -34 20
-68 51 -34 31 -67 56 -72 56 -5 0 -36 -25 -69 -55 -53 -49 -88 -68 -88 -48 0
6 151 163 156 163 1 0 34 -36 74 -80z m-17 -43 c26 -19 44 -37 40 -40 -9 -10
-181 -9 -187 1 -6 10 72 71 90 72 6 0 32 -15 57 -33z m580 0 c26 -19 44 -37
40 -40 -9 -10 -181 -9 -187 1 -5 9 71 70 90 71 6 1 32 -14 57 -32z m-549 -99
c9 -12 16 -38 16 -58 0 -19 14 -69 31 -112 36 -86 34 -108 -11 -108 -17 0 -42
-7 -55 -16 -32 -21 -102 -21 -142 -1 -18 10 -41 17 -51 17 -40 0 -42 22 -6
109 19 47 34 100 34 119 0 63 12 72 95 72 65 0 76 -3 89 -22z m580 0 c9 -12
16 -39 16 -59 0 -20 14 -69 30 -107 17 -39 30 -77 30 -85 0 -16 -21 -27 -48
-27 -9 0 -40 -10 -69 -22 l-53 -22 -53 22 c-29 12 -60 22 -68 22 -37 0 -38 23
-3 109 19 47 34 100 34 119 0 63 12 72 95 72 65 0 76 -3 89 -22z"/>
<path d="M10590 8505 l0 -75 55 0 55 0 0 75 0 75 -55 0 -55 0 0 -75z"/>
<path d="M11170 8505 l0 -75 55 0 55 0 0 75 0 75 -55 0 -55 0 0 -75z"/>
<path d="M3100 9577 c0 -5 97 -303 215 -663 l214 -656 104 -111 c429 -463 518
-556 512 -536 -4 13 -25 59 -46 101 -33 66 -39 87 -39 142 0 37 5 66 11 68 7
2 5 18 -6 46 -19 46 -26 50 -45 27 -10 -12 -10 -15 3 -15 8 0 18 -7 21 -16 9
-23 7 -204 -1 -204 -5 1 -20 17 -35 37 -24 31 -28 46 -28 104 0 37 -3 74 -6
83 -4 10 -1 16 7 16 7 0 25 12 40 26 l27 26 27 -48 c26 -49 26 -46 -2 34 -13
36 -19 42 -44 42 -18 0 -37 -10 -53 -26 -23 -25 -24 -26 -34 -8 -5 11 -7 24
-5 31 5 14 -25 74 -44 89 -13 9 -13 12 1 23 13 11 19 4 45 -46 37 -72 39 -64
5 22 -25 61 -28 65 -58 65 -31 0 -34 4 -67 77 -44 100 -47 110 -9 43 31 -56
31 -38 -1 37 -10 23 -25 43 -34 45 -10 2 -83 147 -198 391 l-182 387 -135 172
c-74 94 -140 179 -147 187 -7 9 -13 12 -13 8z m718 -1472 l3 -120 -30 35 -30
35 0 140 0 140 27 -55 c23 -48 26 -70 30 -175z m92 -1 c6 -14 10 -69 10 -122
l-1 -97 -24 30 c-22 27 -25 39 -25 123 0 76 3 92 15 92 9 0 20 -12 25 -26z"/>
<path d="M1205 9330 c-248 -123 -384 -306 -459 -614 -33 -135 -49 -247 -38
-275 8 -22 12 -19 85 49 96 90 177 210 274 405 73 147 99 194 70 125 -86 -206
-112 -259 -182 -365 -53 -83 -146 -183 -196 -212 -16 -10 -29 -21 -29 -25 0
-29 121 23 225 97 216 153 345 421 380 793 9 90 7 90 -130 22z"/>
<path d="M12523 8988 c-18 -9 -23 -20 -23 -48 l0 -38 -72 1 c-114 1 -158 -30
-158 -112 0 -34 7 -47 43 -84 23 -24 53 -50 67 -59 24 -15 24 -16 8 -35 -26
-28 -22 -49 12 -74 29 -22 29 -23 9 -37 -14 -10 -19 -23 -17 -45 l3 -32 77 3
77 4 -11 -30 c-26 -67 36 -115 93 -73 32 24 34 20 18 -28 -23 -64 36 -83 96
-30 27 24 35 27 35 14 0 -21 85 -105 106 -105 8 0 17 6 20 14 7 17 -50 130
-111 222 -64 97 -8 29 71 -86 l66 -95 -5 50 c-8 68 -47 249 -58 266 -8 12 -11
12 -19 -1 -11 -17 -13 -10 -11 35 3 56 -28 217 -45 236 -21 24 -53 24 -60 2
-19 -61 -20 -61 -68 40 -35 73 -55 103 -79 117 -36 23 -34 22 -64 8z"/>
<path d="M19574 8976 c-100 -31 -164 -122 -164 -230 1 -142 96 -235 239 -236
115 0 196 60 227 169 38 129 -32 258 -162 297 -57 17 -86 17 -140 0z"/>
<path d="M25817 8974 c-32 -10 -64 -30 -92 -59 -113 -112 -89 -296 48 -375 44
-25 63 -30 122 -30 62 0 77 4 125 33 173 104 141 374 -51 431 -64 19 -89 19
-152 0z"/>
<path d="M349 8923 c-157 -359 -172 -758 -40 -1075 35 -83 128 -230 150 -236
16 -5 16 -5 -28 115 -52 143 -66 235 -63 443 1 102 3 196 6 210 2 14 5 48 7
75 1 28 6 -85 10 -250 7 -320 16 -387 71 -534 l24 -64 21 22 c12 13 39 78 62
144 131 397 75 832 -146 1133 -26 35 -48 64 -50 64 -2 0 -13 -21 -24 -47z"/>
<path d="M19005 8846 c-60 -24 -143 -55 -182 -70 l-73 -28 0 -944 0 -944 195
0 195 0 0 1015 c0 806 -3 1015 -12 1014 -7 0 -62 -20 -123 -43z"/>
<path d="M15440 7840 l0 -980 210 0 210 0 0 324 0 324 248 5 c271 5 327 14
434 67 204 101 319 268 350 505 36 285 -101 551 -347 670 -129 63 -151 65
-652 65 l-453 0 0 -980z m870 585 c60 -33 114 -96 130 -153 5 -20 10 -67 10
-104 0 -94 -29 -166 -86 -217 -71 -63 -113 -73 -321 -78 l-183 -5 0 297 0 297
198 -4 197 -3 55 -30z"/>
<path d="M20468 8676 l-188 -69 0 -188 0 -189 -125 0 -125 0 0 -160 0 -159
118 -3 117 -3 5 -390 c6 -435 6 -435 80 -533 87 -116 232 -169 425 -159 61 4
127 11 148 17 l37 11 0 170 0 169 -27 -7 c-16 -4 -55 -7 -89 -7 -82 1 -132 26
-161 84 -22 43 -23 53 -23 347 l0 303 150 0 150 0 0 160 0 160 -150 0 -150 0
-2 258 -3 257 -187 -69z"/>
<path d="M13406 8533 c-15 -14 -43 -60 -63 -101 l-37 -75 -13 32 c-18 44 -47
41 -74 -9 -15 -29 -15 -159 0 -280 5 -41 8 -77 5 -79 -2 -2 -12 3 -22 12 -23
21 -48 22 -56 1 -12 -32 -5 -123 14 -180 43 -125 50 -153 34 -147 -11 4 -14
-8 -14 -63 0 -105 12 -264 20 -264 4 0 24 69 46 154 62 247 56 176 -8 -102
-18 -74 -20 -94 -9 -105 10 -10 16 -7 32 12 10 13 19 31 19 40 0 9 9 27 20 41
11 14 20 37 20 53 0 30 7 32 44 16 20 -10 30 -9 50 4 36 24 41 52 17 93 -26
44 -26 44 7 39 29 -6 52 8 70 42 19 35 14 77 -14 118 l-25 38 20 29 c12 15 30
40 41 56 11 15 27 56 36 92 18 73 9 118 -26 127 -27 7 -32 30 -20 109 20 141
7 259 -32 302 -28 29 -49 28 -82 -5z m-99 -775 c-3 -8 -6 -5 -6 6 -1 11 2 17
5 13 3 -3 4 -12 1 -19z m-10 -50 c-3 -7 -5 -2 -5 12 0 14 2 19 5 13 2 -7 2
-19 0 -25z"/>
<path d="M17670 8274 c-14 -2 -52 -9 -85 -15 -362 -65 -608 -411 -564 -795 50
-446 453 -720 916 -625 269 56 469 242 545 508 29 101 31 294 5 393 -69 258
-256 444 -514 511 -74 19 -250 33 -303 23z m244 -400 c68 -33 119 -87 155
-163 23 -49 26 -68 26 -161 0 -93 -3 -112 -26 -161 -38 -80 -88 -131 -160
-164 -202 -90 -420 11 -474 220 -29 113 -11 229 50 322 88 133 279 181 429
107z"/>
<path d="M21718 8270 c-325 -52 -553 -306 -583 -650 -9 -97 9 -244 41 -340 56
-165 175 -304 327 -379 134 -65 187 -76 377 -75 143 1 178 5 262 27 54 14 138
47 188 72 l90 47 0 169 c0 93 -1 169 -3 169 -2 0 -38 -20 -80 -44 -43 -24
-121 -59 -175 -77 -92 -32 -105 -33 -237 -34 -130 0 -144 2 -195 26 -31 14
-72 40 -91 57 -43 37 -86 115 -91 162 l-3 35 481 3 482 2 6 23 c9 34 7 128 -5
214 -41 301 -201 501 -459 572 -86 24 -247 34 -332 21z m257 -347 c73 -38 144
-137 145 -200 l0 -23 -286 0 -286 0 7 33 c20 92 100 177 195 208 46 15 181 4
225 -18z"/>
<path d="M23293 8269 c-231 -36 -435 -177 -531 -369 -52 -106 -72 -179 -79
-300 -21 -364 180 -653 523 -752 67 -19 101 -23 229 -22 157 1 221 12 358 64
l57 21 0 204 0 204 -72 -39 c-190 -101 -377 -114 -521 -38 -68 36 -100 72
-136 148 -23 48 -26 68 -26 160 0 92 3 112 26 161 100 213 376 258 657 109
l72 -39 0 202 0 202 -56 23 c-138 56 -360 83 -501 61z"/>
<path d="M24820 8274 c-103 -19 -178 -50 -253 -108 l-47 -36 0 50 0 50 -195 0
-195 0 0 -685 0 -685 195 0 195 0 0 455 0 455 41 45 c79 86 200 123 297 91 61
-20 125 -86 141 -142 7 -25 11 -195 11 -471 l0 -433 195 0 196 0 -3 528 c-3
524 -3 527 -26 584 -54 133 -165 236 -301 278 -64 20 -200 33 -251 24z"/>
<path d="M26943 8269 c-231 -36 -438 -180 -532 -370 -63 -129 -76 -191 -75
-354 1 -118 5 -153 25 -220 72 -236 249 -406 495 -477 67 -19 101 -23 229 -22
157 1 221 12 358 64 l57 21 0 204 0 204 -72 -39 c-192 -102 -381 -115 -524
-36 -69 38 -113 92 -144 173 -31 83 -26 214 11 294 100 213 376 258 657 109
l72 -39 0 202 0 202 -56 23 c-138 56 -360 83 -501 61z"/>
<path d="M28340 8273 c-288 -33 -517 -217 -607 -488 -25 -73 -27 -94 -27 -235
0 -141 2 -162 27 -235 38 -113 90 -198 177 -285 86 -87 188 -145 316 -182 114
-32 324 -32 439 0 267 77 455 277 512 546 11 50 14 106 10 191 -5 139 -33 239
-94 345 -47 80 -159 193 -237 239 -144 85 -338 124 -516 104z m247 -392 c70
-31 143 -110 173 -186 31 -83 31 -206 0 -289 -29 -76 -94 -147 -169 -183 -49
-24 -68 -28 -146 -28 -109 1 -166 23 -237 92 -134 132 -137 386 -5 521 73 75
146 103 257 99 50 -3 92 -11 127 -26z"/>
<path d="M19450 7545 l0 -685 195 0 195 0 0 685 0 685 -195 0 -195 0 0 -685z"/>
<path d="M25700 7545 l0 -685 195 0 195 0 0 685 0 685 -195 0 -195 0 0 -685z"/>
<path d="M4592 7742 l-112 -207 52 -46 52 -46 -75 -2 -74 -1 25 20 c31 24 34
24 68 3 l27 -17 -24 27 c-14 15 -30 27 -36 27 -16 0 -71 -62 -155 -173 -38
-50 -79 -92 -97 -101 -33 -16 -33 -16 -33 -91 0 -41 3 -74 8 -74 4 1 181 1
393 0 l386 -1 131 -148 c71 -82 135 -158 142 -168 10 -17 9 -31 -4 -76 -9 -31
-16 -59 -16 -62 0 -3 250 -6 555 -6 l555 0 0 55 0 55 33 0 c41 0 54 -9 62 -43
5 -19 13 -27 30 -27 32 0 50 26 67 98 l16 62 -64 0 c-34 0 -66 -4 -69 -10 -3
-5 -18 -10 -33 -10 -23 0 -30 7 -42 43 l-15 42 -490 5 c-519 6 -589 12 -614
52 -10 16 -10 18 0 13 7 -5 10 -4 7 1 -3 5 -74 153 -158 329 -134 278 -298
573 -367 662 -18 23 -19 21 -131 -185z m283 -252 c22 -23 42 -35 45 -29 4 5
28 -38 54 -97 26 -59 45 -108 43 -111 -3 -2 -24 41 -47 96 -31 73 -46 98 -57
94 -8 -3 -29 8 -48 27 l-33 32 -32 -22 c-17 -12 -29 -25 -26 -28 3 -3 15 3 25
12 21 19 51 15 72 -10 11 -13 3 -15 -60 -13 l-72 2 42 43 c24 24 46 44 49 44
3 0 23 -18 45 -40z m45 -5 c0 -5 -5 -3 -10 5 -5 8 -10 20 -10 25 0 6 5 3 10
-5 5 -8 10 -19 10 -25z m-368 -112 c4 -23 13 -54 22 -70 18 -36 12 -46 -36
-63 -31 -11 -44 -11 -80 0 -24 7 -47 16 -51 20 -4 4 1 26 12 51 12 24 21 56
21 70 0 36 8 40 59 37 45 -3 46 -4 53 -45z m329 7 c3 -19 13 -52 22 -74 9 -21
15 -41 12 -45 -2 -4 -22 -13 -44 -21 -34 -11 -48 -11 -83 0 -24 7 -46 16 -50
19 -4 3 2 26 12 50 11 24 20 55 20 70 0 38 7 42 60 39 43 -3 45 -5 51 -38z
m168 -293 c95 -105 108 -126 35 -55 l-79 78 -320 7 c-176 5 -286 10 -245 13
41 3 187 3 323 2 l248 -4 38 -41z m1381 -342 c11 -13 7 -15 -30 -15 -37 0 -41
2 -30 15 7 8 20 15 30 15 10 0 23 -7 30 -15z"/>
<path d="M4462 7348 c3 -40 5 -43 33 -43 28 0 30 3 33 43 l3 42 -36 0 -36 0 3
-42z"/>
<path d="M4800 7345 c0 -43 1 -45 30 -45 29 0 30 2 30 45 0 43 -1 45 -30 45
-29 0 -30 -2 -30 -45z"/>
<path d="M8970 7883 c-122 -190 -195 -323 -317 -577 -74 -153 -145 -301 -159
-328 -14 -28 -20 -47 -14 -43 8 5 7 0 -1 -13 -9 -14 -35 -24 -93 -36 -67 -13
-159 -16 -537 -16 -429 0 -457 -1 -472 -18 -10 -10 -17 -26 -17 -35 0 -8 -7
-23 -16 -31 -14 -14 -18 -14 -44 -1 -36 19 -140 20 -140 3 0 -26 29 -120 40
-134 22 -25 55 -17 71 19 12 27 20 33 52 35 l37 3 0 -55 0 -56 555 0 c396 0
555 3 555 11 0 6 -7 35 -16 65 l-16 55 45 52 c25 29 88 102 141 162 l96 110
395 5 395 5 0 -171 0 -170 -83 -57 -83 -57 -325 0 -325 0 -54 -55 -54 -55
-803 0 c-707 0 -803 2 -803 15 0 13 -20 15 -120 15 -100 0 -120 -2 -120 -15 0
-13 -95 -15 -796 -15 l-797 0 -62 55 -63 55 -322 0 -322 0 -79 55 c-43 30 -81
55 -84 55 -3 0 -5 -44 -5 -98 0 -54 -3 -101 -6 -104 -3 -3 -139 72 -303 168
l-298 174 -171 0 -172 0 0 280 c0 222 3 285 14 303 8 12 17 39 20 60 l7 37
-202 0 c-179 0 -200 -2 -195 -16 3 -9 6 -20 6 -25 0 -5 71 -9 165 -9 l165 0 0
-315 0 -315 -350 0 -350 0 0 283 c0 221 3 287 14 302 7 11 16 37 19 58 l6 37
-200 0 c-114 0 -199 -4 -199 -9 0 -39 8 -41 176 -41 l164 0 0 -315 0 -315
-369 0 c-319 0 -370 -2 -375 -15 -5 -13 100 -15 906 -15 l910 0 469 -286 c258
-157 469 -288 469 -291 0 -3 -10 1 -22 9 -13 8 -223 134 -468 281 l-445 267
-918 -2 -918 -3 56 -67 57 -68 859 0 860 0 222 -121 c859 -470 1263 -694 1269
-703 10 -14 10 -700 1 -973 l-6 -203 -26 -1 c-14 0 -20 -3 -13 -6 7 -3 24 -2
37 1 l24 6 3 559 c2 456 6 561 17 575 12 15 61 16 555 14 l541 -3 6 -30 7 -30
1 32 1 33 1185 0 c1159 0 1185 -1 1195 -19 6 -13 10 -213 10 -575 l0 -556 23
-4 c37 -8 143 -16 130 -10 -10 4 -13 61 -13 236 0 206 -2 229 -16 224 -9 -3
-22 -6 -30 -6 -12 0 -14 -37 -14 -220 l0 -220 -28 0 -29 0 -6 577 c-4 344 -2
583 3 593 9 16 198 122 1138 637 l354 193 861 1 862 0 53 64 c28 35 52 66 52
69 0 3 -412 6 -916 6 l-916 0 -411 -247 c-227 -135 -423 -253 -437 -262 -14
-8 -20 -10 -15 -4 6 6 199 126 430 267 l419 256 381 0 c210 0 625 3 923 7 448
5 540 9 531 20 -9 10 -88 13 -378 15 l-366 3 -3 312 -2 313 166 2 c163 3 167
4 175 26 l8 22 -205 0 c-192 0 -206 -1 -199 -17 4 -10 10 -29 13 -43 2 -14 11
-32 18 -41 12 -13 14 -69 12 -295 l-3 -279 -352 -3 -353 -2 0 315 0 315 164 0
c168 0 176 2 176 41 0 5 -86 9 -201 9 -187 0 -201 -1 -194 -17 3 -10 9 -30 12
-46 3 -15 10 -30 14 -33 5 -3 9 -135 9 -295 l0 -289 -172 -1 -173 0 -295 -173
c-162 -96 -296 -173 -297 -172 -1 1 -3 156 -3 344 l-1 343 -39 24 c-21 13 -74
70 -118 127 -44 57 -91 114 -105 127 l-26 23 -31 -22 c-17 -12 -29 -25 -26
-28 3 -3 15 3 25 12 21 19 51 15 72 -10 11 -13 3 -15 -60 -13 l-72 2 52 46 51
46 -112 208 c-62 114 -113 207 -114 207 -2 0 -22 -30 -46 -67z m-139 -350
c-12 -20 -14 -14 -5 12 4 9 9 14 11 11 3 -2 0 -13 -6 -23z m149 -89 c0 -1 -39
-2 -86 -2 l-86 0 43 44 43 44 43 -42 c24 -23 43 -43 43 -44z m-220 -80 c-28
-65 -58 -126 -67 -134 -14 -14 -14 -13 -1 10 9 14 37 76 63 137 27 62 50 111
52 109 2 -2 -19 -57 -47 -122z m191 16 c3 -19 13 -51 21 -70 17 -41 14 -60
-12 -60 -10 0 -22 -4 -25 -10 -9 -15 -57 -12 -99 5 l-36 15 16 38 c9 20 19 51
21 67 8 55 10 56 60 53 46 -3 48 -4 54 -38z m330 0 c4 -19 14 -52 23 -72 20
-47 20 -58 -1 -58 -9 0 -31 -5 -48 -11 -35 -13 -69 -8 -99 14 -19 14 -19 16
-3 59 9 24 17 56 17 70 0 31 12 38 65 35 37 -2 40 -4 46 -37z m67 -255 c1 -1
-141 -5 -315 -9 l-318 -7 -69 -67 -70 -67 66 75 66 75 228 5 c196 5 403 2 412
-5z m-1990 -382 c2 -9 -9 -13 -38 -13 -37 0 -41 2 -30 16 15 17 61 15 68 -3z
m-2307 -188 c45 -40 42 -48 -3 -10 l-30 25 -298 0 c-188 0 -301 4 -305 10 -4
7 97 10 296 10 l302 0 38 -35z m4254 25 c-4 -6 -117 -10 -306 -10 l-299 0 -42
-37 -43 -37 45 47 44 47 304 0 c199 0 301 -3 297 -10z m-4234 -90 l57 -50 666
0 c427 0 666 -4 666 -10 0 -6 -34 -10 -79 -10 l-80 0 5 -27 c6 -34 22 -63 34
-63 5 0 17 14 26 32 l16 32 28 -34 c27 -33 28 -33 39 -12 6 11 11 32 11 45 0
14 6 30 13 36 10 8 311 11 1067 11 l1053 0 58 50 58 50 268 -2 268 -3 -112
-79 -112 -80 -61 3 -60 2 0 -45 c0 -43 -2 -47 -55 -86 -30 -22 -59 -40 -65
-40 -6 0 -10 42 -10 114 0 64 -4 118 -10 121 -16 10 -21 -35 -18 -177 l3 -137
53 40 52 40 0 -35 c0 -33 -5 -39 -117 -115 l-118 -80 -392 0 -393 0 0 154 0
155 80 0 c47 0 80 4 80 10 0 6 -35 10 -85 10 l-85 0 0 -165 0 -165 -125 0
-125 0 0 155 0 155 80 0 c47 0 80 4 80 10 0 6 -35 10 -85 10 l-85 0 0 -165 0
-165 -75 0 c-43 0 -75 4 -75 10 0 6 -30 10 -70 10 -39 0 -70 -4 -70 -10 0 -6
-150 -10 -410 -10 -260 0 -410 4 -410 10 0 6 -31 10 -70 10 -40 0 -70 -4 -70
-10 0 -6 -32 -10 -75 -10 l-75 0 0 165 0 165 -85 0 c-50 0 -85 -4 -85 -10 0
-6 33 -10 80 -10 l80 0 0 -155 0 -155 -125 0 -125 0 0 165 0 165 -85 0 c-50 0
-85 -4 -85 -10 0 -6 33 -10 80 -10 l80 0 0 -155 0 -155 -255 0 -255 0 0 165 0
165 -85 0 c-50 0 -85 -4 -85 -10 0 -6 33 -10 80 -10 l80 0 0 -155 0 -155 -131
0 -130 0 -120 82 c-113 78 -119 84 -119 116 0 26 3 32 13 25 6 -5 31 -24 55
-42 l43 -33 -3 156 c-4 188 -22 219 -26 44 -1 -65 -6 -118 -11 -118 -4 0 -33
18 -64 41 -55 39 -57 42 -57 85 l0 45 -60 -2 -60 -2 -110 78 c-60 43 -110 80
-110 82 0 1 120 3 267 3 l266 0 58 -50z m1199 -27 c0 -15 -16 -16 -172 -10
-95 4 -303 8 -463 9 -213 1 -258 4 -170 8 66 3 274 7 463 8 313 2 342 1 342
-15z m958 0 c3 -10 -75 -13 -367 -13 -204 0 -371 4 -371 8 0 5 3 12 7 15 4 4
169 6 366 5 278 -2 361 -6 365 -15z m1012 8 c100 -4 15 -8 -325 -13 -253 -3
-462 -5 -464 -3 -1 2 0 8 4 14 7 12 547 13 785 2z m1010 -186 c0 -2 -10 -9
-22 -15 -22 -11 -22 -10 -4 4 21 17 26 19 26 11z m-50 -30 c0 -2 -10 -9 -22
-15 -22 -11 -22 -10 -4 4 21 17 26 19 26 11z m-4620 -31 c0 -2 -9 0 -20 6 -11
6 -20 13 -20 16 0 2 9 0 20 -6 11 -6 20 -13 20 -16z m4570 1 c0 -2 -10 -9 -22
-15 -22 -11 -22 -10 -4 4 21 17 26 19 26 11z"/>
<path d="M8863 7474 l-28 -26 31 17 c29 17 32 17 60 -1 l29 -18 -24 27 c-30
33 -33 33 -68 1z"/>
<path d="M8862 7348 c3 -40 5 -43 33 -43 28 0 30 3 33 43 l3 42 -36 0 -36 0 3
-42z"/>
<path d="M9200 7345 c0 -43 1 -45 30 -45 29 0 30 2 30 45 0 43 -1 45 -30 45
-29 0 -30 -2 -30 -45z"/>
<path d="M4790 6494 c17 -15 34 -24 37 -20 10 10 -28 46 -49 46 -16 0 -14 -5
12 -26z"/>
<path d="M8912 6504 c-23 -16 -29 -34 -12 -34 5 0 20 11 34 25 28 28 13 34
-22 9z"/>
<path d="M4702 6425 c10 -22 17 -25 65 -25 29 0 53 4 53 9 0 5 3 16 6 25 5 14
-4 16 -65 16 l-71 0 12 -25z"/>
<path d="M8890 6442 c0 -5 6 -16 13 -26 10 -13 24 -17 61 -14 40 2 50 7 57 26
8 21 7 22 -61 22 -39 0 -70 -4 -70 -8z"/>
<path d="M5047 6433 c-11 -10 -8 -33 3 -33 6 0 19 9 30 20 l20 20 -23 0 c-13
0 -27 -3 -30 -7z"/>
<path d="M8642 6421 c16 -25 41 -28 36 -3 -2 9 -14 18 -26 20 -21 3 -22 2 -10
-17z"/>
<path d="M7263 6399 c-2 -27 14 -69 26 -69 6 0 18 14 27 32 l16 32 27 -33 c23
-28 29 -31 39 -18 7 8 14 29 17 46 l4 31 -78 0 c-71 0 -77 -2 -78 -21z"/>
<path d="M5231 6364 c-12 -15 -21 -31 -21 -35 0 -5 38 -9 85 -9 47 0 85 4 85
9 0 12 -40 61 -50 61 -4 0 -10 -9 -13 -20 -3 -11 -13 -20 -22 -20 -9 0 -19 9
-22 20 -7 27 -17 25 -42 -6z"/>
<path d="M5491 6361 c-12 -16 -21 -32 -21 -35 0 -3 38 -6 85 -6 47 0 85 4 85
9 0 12 -40 61 -50 61 -4 0 -10 -9 -13 -20 -3 -11 -12 -20 -20 -20 -9 0 -19 9
-22 20 -9 27 -20 25 -44 -9z"/>
<path d="M5751 6361 c-11 -15 -18 -31 -14 -35 10 -9 163 -7 163 3 0 12 -40 61
-50 61 -4 0 -10 -9 -13 -20 -3 -11 -12 -20 -20 -20 -9 0 -19 9 -22 20 -9 27
-20 25 -44 -9z"/>
<path d="M6012 6361 c-11 -16 -18 -31 -15 -35 4 -3 42 -6 85 -6 86 0 96 9 55
48 -29 27 -33 27 -40 2 -3 -11 -12 -20 -20 -20 -9 0 -19 9 -22 20 -9 27 -17
25 -43 -9z"/>
<path d="M6531 6364 c-12 -15 -21 -31 -21 -35 0 -10 153 -12 163 -3 8 8 -30
64 -43 64 -5 0 -12 -9 -15 -20 -3 -11 -13 -20 -22 -20 -8 0 -17 9 -20 20 -7
27 -17 25 -42 -6z"/>
<path d="M7066 6365 c-27 -41 -21 -45 64 -45 88 0 99 9 57 48 -27 26 -37 28
-37 8 0 -26 -23 -30 -41 -8 -22 27 -23 27 -43 -3z"/>
<path d="M7581 6364 c-12 -15 -21 -31 -21 -35 0 -5 38 -9 85 -9 47 0 85 4 85
9 0 12 -40 61 -50 61 -4 0 -10 -9 -13 -20 -3 -11 -13 -20 -22 -20 -9 0 -19 9
-22 20 -7 27 -17 25 -42 -6z"/>
<path d="M7841 6361 c-12 -16 -21 -32 -21 -35 0 -3 38 -6 85 -6 47 0 85 4 85
9 0 12 -40 61 -50 61 -4 0 -10 -9 -13 -20 -3 -11 -13 -20 -22 -20 -9 0 -19 9
-22 20 -7 27 -18 25 -42 -9z"/>
<path d="M8101 6361 c-11 -15 -18 -31 -14 -35 10 -9 163 -7 163 3 0 12 -40 61
-50 61 -4 0 -10 -9 -13 -20 -3 -11 -13 -20 -22 -20 -9 0 -19 9 -22 20 -7 27
-18 25 -42 -9z"/>
<path d="M8361 6361 c-11 -15 -18 -31 -14 -35 3 -3 42 -6 85 -6 86 0 96 9 55
48 -29 27 -33 27 -40 2 -3 -11 -12 -20 -20 -20 -9 0 -19 9 -22 20 -9 27 -20
25 -44 -9z"/>
<path d="M5047 6343 c-4 -3 -6 -54 -6 -112 l2 -106 8 75 c5 41 14 87 20 102
14 35 -3 63 -24 41z"/>
<path d="M6813 6343 c32 -2 81 -2 110 0 29 2 3 3 -58 3 -60 0 -84 -1 -52 -3z"/>
<path d="M8647 6331 c-2 -11 0 -24 6 -30 5 -5 13 -50 17 -98 l7 -88 2 118 c1
94 -2 117 -13 117 -7 0 -16 -9 -19 -19z"/>
<path d="M5470 6300 c0 -6 33 -10 80 -10 l79 0 4 -142 3 -143 2 153 2 152 -85
0 c-50 0 -85 -4 -85 -10z"/>
<path d="M6510 6300 c0 -6 35 -10 85 -10 50 0 85 4 85 10 0 6 -35 10 -85 10
-50 0 -85 -4 -85 -10z"/>
<path d="M7050 6218 l5 -93 3 83 3 82 74 0 c41 0 77 5 80 10 4 6 -26 10 -82
10 l-88 0 5 -92z"/>
<path d="M8080 6300 c0 -6 35 -10 85 -10 50 0 85 4 85 10 0 6 -35 10 -85 10
-50 0 -85 -4 -85 -10z"/>
<path d="M8340 6300 c0 -6 35 -10 84 -10 47 0 88 5 91 10 4 6 -27 10 -84 10
-54 0 -91 -4 -91 -10z"/>
<path d="M5250 6140 l0 -100 45 0 45 0 0 100 0 100 -45 0 -45 0 0 -100z"/>
<path d="M5510 6140 l0 -100 45 0 45 0 0 100 0 100 -45 0 -45 0 0 -100z"/>
<path d="M5770 6140 l0 -100 50 0 50 0 0 100 0 100 -50 0 -50 0 0 -100z"/>
<path d="M6030 6140 l0 -100 50 0 50 0 0 100 0 100 -50 0 -50 0 0 -100z"/>
<path d="M6550 6140 l0 -100 45 0 45 0 0 100 0 100 -45 0 -45 0 0 -100z"/>
<path d="M7080 6140 l0 -100 50 0 50 0 0 100 0 100 -50 0 -50 0 0 -100z"/>
<path d="M7600 6140 l0 -100 45 0 45 0 0 100 0 100 -45 0 -45 0 0 -100z"/>
<path d="M7860 6140 l0 -100 45 0 45 0 0 100 0 100 -45 0 -45 0 0 -100z"/>
<path d="M8120 6140 l0 -100 45 0 45 0 0 100 0 100 -45 0 -45 0 0 -100z"/>
<path d="M8380 6140 l0 -100 45 0 45 0 0 100 0 100 -45 0 -45 0 0 -100z"/>
<path d="M6358 6043 c12 -2 32 -2 45 0 12 2 2 4 -23 4 -25 0 -35 -2 -22 -4z"/>
<path d="M7323 6043 c15 -2 37 -2 50 0 12 2 0 4 -28 4 -27 0 -38 -2 -22 -4z"/>
<path d="M3575 7863 c17 -3 37 -10 45 -16 13 -10 13 -10 1 6 -8 10 -25 16 -45
16 l-31 -2 30 -4z"/>
<path d="M10099 7853 c-12 -14 -12 -16 0 -8 8 4 28 12 45 16 l31 7 -31 1 c-19
1 -37 -6 -45 -16z"/>
<path d="M890 7833 c-214 -126 -354 -339 -417 -633 -25 -122 -26 -404 0 -443
9 -15 26 -27 36 -27 31 0 114 61 201 150 125 127 193 257 235 450 31 143 32
530 2 530 -7 0 -32 -12 -57 -27z m-100 -484 c-38 -170 -78 -288 -132 -389 -41
-77 -102 -163 -140 -196 -25 -23 -21 -15 48 86 106 157 148 258 215 517 18 72
35 130 37 128 2 -2 -10 -68 -28 -146z"/>
<path d="M12848 7819 c-10 -5 -18 -20 -18 -33 0 -35 -8 -36 -60 -10 -60 30
-118 31 -154 3 -48 -38 -33 -118 42 -231 l25 -38 -27 -25 c-46 -43 -26 -99 52
-146 71 -43 74 -47 50 -79 -40 -55 11 -126 73 -103 34 13 34 12 14 -28 -24
-45 -5 -73 43 -66 21 3 47 8 60 12 18 6 21 4 16 -9 -4 -10 1 -26 13 -39 11
-12 27 -35 34 -52 9 -19 22 -30 34 -30 31 0 21 60 -34 205 -66 172 -66 172
-32 110 16 -30 47 -101 68 -157 20 -57 41 -103 46 -103 11 0 5 285 -6 296 -4
5 -12 2 -17 -6 -14 -22 -12 12 5 90 25 114 16 210 -21 224 -7 3 -24 -9 -38
-26 -28 -36 -27 -37 -50 82 -18 92 -29 123 -56 150 -22 22 -36 24 -62 9z"/>
<path d="M3570 7803 c14 -3 33 -12 43 -20 9 -9 17 -12 17 -7 0 19 -25 34 -54
33 -28 -2 -28 -2 -6 -6z"/>
<path d="M10108 7796 c-10 -7 -18 -17 -18 -21 0 -5 8 -1 18 8 9 8 28 17 42 20
l25 4 -25 1 c-14 1 -33 -5 -42 -12z"/>
<path d="M3600 7736 c0 -2 8 -10 18 -17 15 -13 16 -12 3 4 -13 16 -21 21 -21
13z"/>
<path d="M10099 7723 c-13 -17 -13 -17 6 -3 11 8 22 16 24 17 2 2 0 3 -6 3 -6
0 -17 -8 -24 -17z"/>
<path d="M2257 7675 c-23 -25 -51 -59 -61 -75 l-17 -30 201 0 201 0 -30 44
c-40 58 -90 108 -102 100 -5 -3 -9 -16 -9 -29 0 -13 -11 -37 -24 -52 -24 -27
-26 -27 -53 -13 -20 11 -31 27 -37 58 -6 23 -13 42 -18 42 -4 0 -27 -20 -51
-45z"/>
<path d="M2999 7693 c-18 -17 -49 -51 -67 -77 l-33 -46 201 0 201 0 -18 31
c-28 48 -100 122 -112 114 -6 -3 -11 -17 -11 -30 0 -13 -11 -36 -24 -52 -21
-24 -26 -26 -50 -15 -15 7 -28 22 -31 39 -15 67 -18 69 -56 36z"/>
<path d="M10511 7689 c-17 -17 -45 -51 -62 -75 l-30 -44 201 0 201 0 -17 30
c-21 35 -101 120 -113 120 -5 0 -11 -18 -15 -40 -8 -49 -43 -78 -75 -60 -24
12 -41 41 -41 69 0 33 -17 33 -49 0z"/>
<path d="M11229 7683 c-37 -39 -79 -96 -79 -107 0 -3 88 -6 195 -6 107 0 195
3 195 7 0 3 -19 30 -42 60 -64 84 -98 100 -98 48 0 -13 -11 -36 -24 -52 -21
-24 -26 -26 -50 -15 -19 8 -29 24 -38 57 -7 25 -15 45 -18 45 -3 0 -22 -17
-41 -37z"/>
<path d="M3570 7673 c14 -3 29 -9 35 -14 15 -15 28 -10 15 6 -7 8 -27 14 -44
14 -27 -2 -28 -2 -6 -6z"/>
<path d="M10108 7669 c-10 -5 -18 -15 -18 -21 0 -6 7 -4 18 5 9 8 28 17 42 20
l25 4 -25 1 c-14 1 -33 -3 -42 -9z"/>
<path d="M3600 7606 c0 -2 8 -10 18 -17 15 -13 16 -12 3 4 -13 16 -21 21 -21
13z"/>
<path d="M10099 7593 c-13 -16 -12 -17 4 -4 9 7 17 15 17 17 0 8 -8 3 -21 -13z"/>
<path d="M3707 7548 c-9 -21 -17 -44 -17 -51 0 -12 100 -100 107 -93 1 1 -6
35 -16 76 -14 54 -19 66 -20 43 -1 -17 -5 -35 -11 -38 -10 -6 -17 16 -23 70
l-3 30 -17 -37z"/>
<path d="M9995 7543 c-11 -65 -16 -71 -29 -33 l-13 34 -12 -63 c-7 -35 -10
-65 -7 -68 3 -3 28 13 55 36 l50 42 -16 44 c-8 25 -17 45 -18 45 -2 0 -7 -17
-10 -37z"/>
<path d="M3575 7543 c17 -3 37 -10 45 -16 13 -10 13 -10 1 6 -8 10 -25 16 -45
16 l-31 -2 30 -4z"/>
<path d="M10099 7533 c-12 -14 -12 -16 0 -8 8 4 28 12 45 16 l31 7 -31 1 c-19
1 -37 -6 -45 -16z"/>
<path d="M3605 7470 c3 -5 11 -10 16 -10 6 0 7 5 4 10 -3 6 -11 10 -16 10 -6
0 -7 -4 -4 -10z"/>
<path d="M10100 7470 c-9 -6 -10 -10 -3 -10 6 0 15 5 18 10 8 12 4 12 -15 0z"/>
<path d="M3690 7442 c0 -11 20 -36 45 -56 l45 -37 2 -262 2 -262 6 275 5 275
-25 23 c-14 13 -37 32 -52 43 -28 20 -28 20 -28 1z"/>
<path d="M9978 7422 c-44 -35 -47 -40 -46 -82 1 -27 3 -34 5 -18 3 16 21 40
47 62 38 31 67 77 48 76 -4 -1 -28 -18 -54 -38z"/>
<path d="M2280 7325 l0 -115 45 0 45 0 0 115 0 115 -45 0 -45 0 0 -115z"/>
<path d="M2390 7325 l0 -115 45 0 45 0 0 115 0 115 -45 0 -45 0 0 -115z"/>
<path d="M3000 7325 l0 -115 45 0 45 0 0 115 0 115 -45 0 -45 0 0 -115z"/>
<path d="M3110 7325 l0 -115 45 0 45 0 0 115 0 115 -45 0 -45 0 0 -115z"/>
<path d="M10530 7325 l0 -115 40 0 40 0 0 115 0 115 -40 0 -40 0 0 -115z"/>
<path d="M10630 7325 l0 -115 45 0 45 0 0 115 0 115 -45 0 -45 0 0 -115z"/>
<path d="M11250 7325 l0 -115 45 0 45 0 0 115 0 115 -45 0 -45 0 0 -115z"/>
<path d="M11350 7325 l0 -115 45 0 45 0 0 115 0 115 -45 0 -45 0 0 -115z"/>
<path d="M3884 7415 c-29 -52 -25 -69 23 -108 25 -20 48 -36 50 -34 1 2 -2 30
-9 61 -11 58 -11 58 -23 30 l-12 -29 -6 25 c-4 14 -8 36 -9 50 -3 24 -4 24
-14 5z"/>
<path d="M9820 7391 c0 -49 -17 -63 -22 -19 l-4 33 -11 -40 c-19 -70 -24 -95
-16 -95 5 0 28 18 52 38 l43 38 -13 42 c-15 53 -29 54 -29 3z"/>
<path d="M3575 7413 c17 -3 37 -10 45 -16 13 -10 13 -10 1 6 -8 10 -25 16 -45
16 l-31 -2 30 -4z"/>
<path d="M10099 7403 c-12 -16 -12 -16 1 -6 8 6 29 13 45 16 l30 4 -31 2 c-20
0 -37 -6 -45 -16z"/>
<path d="M3576 7351 c17 -4 37 -11 45 -15 8 -4 5 0 -5 8 -11 9 -31 16 -45 15
-24 -1 -24 -2 5 -8z"/>
<path d="M3720 7161 l0 -199 25 -16 25 -16 0 199 0 199 -25 16 -25 16 0 -199z"/>
<path d="M9973 7341 c-22 -19 -23 -24 -23 -216 l0 -196 30 21 30 21 0 195 c0
107 -3 194 -7 194 -5 -1 -18 -9 -30 -19z"/>
<path d="M10106 7345 c-11 -8 -15 -15 -10 -15 6 0 14 4 20 9 5 5 20 11 34 14
l25 4 -25 1 c-14 1 -34 -5 -44 -13z"/>
<path d="M3860 7306 c0 -14 22 -38 69 -74 15 -12 21 -24 17 -31 -6 -9 -14 -7
-32 10 l-24 22 0 -191 c0 -186 1 -191 22 -206 12 -9 26 -16 31 -16 5 0 6 43 2
98 -4 60 -2 144 5 212 l12 114 -33 28 c-50 42 -69 52 -69 34z"/>
<path d="M9810 7284 c-26 -21 -45 -44 -44 -55 0 -10 2 -128 4 -261 2 -134 5
-220 7 -193 3 45 7 52 33 64 l30 13 0 189 c0 199 0 198 -42 161 -16 -13 -18
-13 -18 0 0 8 18 31 40 51 22 19 40 43 40 51 0 21 2 22 -50 -20z"/>
<path d="M4048 7295 c-3 -6 -9 -27 -13 -48 -7 -35 -5 -40 31 -72 22 -19 34
-34 28 -35 -6 0 -19 9 -29 20 -21 24 -35 26 -35 6 0 -8 15 -27 34 -41 19 -15
37 -36 40 -48 2 -12 3 14 1 58 -3 44 -9 94 -14 110 l-9 30 -1 -27 c-2 -44 -20
-32 -23 15 -2 23 -6 37 -10 32z"/>
<path d="M3575 7283 c17 -3 36 -9 43 -15 8 -7 12 -7 12 0 0 13 -26 22 -58 21
-26 -2 -26 -2 3 -6z"/>
<path d="M9665 7250 l-8 -45 -12 29 -12 29 -7 -34 c-3 -19 -8 -58 -11 -87 l-5
-53 33 22 c39 27 57 48 57 67 0 10 -10 7 -34 -12 -52 -39 -57 -31 -8 12 l43
37 -14 40 -14 40 -8 -45z"/>
<path d="M10099 7273 c-12 -16 -12 -16 1 -6 8 6 29 13 45 16 l30 4 -31 2 c-20
0 -37 -6 -45 -16z"/>
<path d="M3576 7221 c17 -4 37 -11 45 -15 8 -4 5 0 -5 8 -11 9 -31 16 -45 15
-24 -1 -24 -2 5 -8z"/>
<path d="M10104 7214 c-10 -8 -13 -12 -5 -8 8 4 28 11 45 15 29 6 29 7 5 8
-14 1 -34 -6 -45 -15z"/>
<path d="M2280 7070 l0 -120 45 0 45 0 0 120 0 120 -45 0 -45 0 0 -120z"/>
<path d="M2390 7069 l0 -120 43 3 42 3 3 118 3 117 -46 0 -45 0 0 -121z"/>
<path d="M3002 7073 l3 -118 43 -3 42 -3 0 120 0 121 -45 0 -46 0 3 -117z"/>
<path d="M3110 7070 l0 -120 45 0 45 0 0 120 0 120 -45 0 -45 0 0 -120z"/>
<path d="M10530 7070 l0 -120 40 0 40 0 0 120 0 120 -40 0 -40 0 0 -120z"/>
<path d="M10630 7070 l0 -120 45 0 45 0 0 120 0 120 -45 0 -45 0 0 -120z"/>
<path d="M11250 7069 l0 -120 43 3 42 3 3 118 3 117 -46 0 -45 0 0 -121z"/>
<path d="M11352 7073 l3 -118 43 -3 42 -3 0 120 0 121 -45 0 -46 0 3 -117z"/>
<path d="M3551 7156 c2 -2 22 -6 44 -9 27 -4 35 -3 25 3 -14 9 -79 15 -69 6z"/>
<path d="M10099 7143 c-12 -16 -12 -16 1 -6 8 6 29 13 45 16 l30 4 -31 2 c-20
0 -37 -6 -45 -16z"/>
<path d="M3575 7093 c17 -3 37 -10 45 -16 13 -10 13 -10 1 6 -8 10 -25 16 -45
16 l-31 -2 30 -4z"/>
<path d="M4050 6920 c0 -166 1 -180 19 -189 17 -10 19 -6 23 38 1 26 2 106 0
177 -3 116 -6 131 -23 142 -18 12 -19 7 -19 -168z"/>
<path d="M6844 7089 c-10 -17 13 -36 27 -22 12 12 4 33 -11 33 -5 0 -12 -5
-16 -11z"/>
<path d="M9650 7085 c-7 -8 -15 -13 -19 -11 -5 4 -6 -235 -2 -337 1 -14 5 -16
21 -7 18 9 19 23 22 190 2 99 0 180 -3 180 -4 0 -12 -7 -19 -15z"/>
<path d="M10104 7084 c-10 -8 -13 -12 -5 -8 8 4 28 11 45 15 29 6 29 7 5 8
-14 1 -34 -6 -45 -15z"/>
<path d="M3607 7019 c7 -7 15 -10 18 -7 3 3 -2 9 -12 12 -14 6 -15 5 -6 -5z"/>
<path d="M10100 7020 c-9 -6 -10 -10 -3 -10 6 0 15 5 18 10 8 12 4 12 -15 0z"/>
<path d="M6596 6993 c-12 -12 -6 -33 9 -33 8 0 15 6 15 14 0 17 -14 28 -24 19z"/>
<path d="M7106 6993 c-12 -12 -6 -33 9 -33 8 0 15 6 15 14 0 17 -14 28 -24 19z"/>
<path d="M66 6903 c-28 -134 -36 -213 -36 -368 0 -284 53 -477 183 -669 69
-102 221 -236 243 -214 3 4 -14 35 -39 70 -93 132 -153 286 -186 483 -18 112
-37 312 -26 290 2 -5 16 -81 30 -169 48 -289 97 -442 189 -585 l54 -84 15 24
c42 65 70 394 48 561 -40 298 -168 536 -369 688 -37 27 -72 50 -78 50 -6 0
-19 -35 -28 -77z m131 -380 c-3 -10 -5 -4 -5 12 0 17 2 24 5 18 2 -7 2 -21 0
-30z"/>
<path d="M13535 6952 c-22 -16 -53 -46 -70 -68 l-29 -39 -11 40 c-14 46 -37
65 -62 49 -36 -21 -52 -77 -67 -228 -8 -81 -17 -150 -19 -153 -3 -2 -14 12
-26 32 -26 45 -51 43 -68 -5 -16 -47 -16 -98 2 -205 14 -89 18 -142 8 -117 -7
17 -20 15 -27 -4 -8 -22 -46 -271 -46 -303 1 -24 2 -24 14 -9 7 10 55 94 106
188 51 93 94 170 96 170 7 0 -41 -102 -118 -249 -61 -118 -78 -158 -71 -170
17 -27 42 -24 60 7 10 17 30 38 45 47 15 9 28 25 28 36 0 26 12 24 40 -6 16
-17 34 -25 56 -25 46 0 59 26 40 82 -17 49 -14 58 12 35 66 -60 142 40 97 127
-9 16 -14 35 -11 42 3 7 30 31 61 54 91 67 120 159 70 218 -31 38 -31 53 2
133 35 86 44 255 16 309 -25 48 -72 53 -128 12z"/>
<path d="M3575 6963 c17 -3 37 -10 45 -16 13 -10 13 -10 1 6 -8 10 -25 16 -45
16 l-31 -2 30 -4z"/>
<path d="M6802 6960 c-18 -4 -36 -11 -40 -15 -4 -4 4 -4 18 0 13 4 56 8 95 8
50 0 61 2 40 7 -39 10 -72 10 -113 0z"/>
<path d="M10104 6954 c-10 -8 -13 -12 -5 -8 8 4 28 11 45 15 29 6 29 7 5 8
-14 1 -34 -6 -45 -15z"/>
<path d="M4410 6897 c4 -18 5 -48 2 -65 -4 -28 -1 -32 18 -32 17 0 21 5 20 28
-1 15 -1 43 0 62 l2 35 7 -30 c4 -16 6 -45 3 -62 -4 -28 -2 -33 16 -33 18 0
21 6 21 55 0 30 2 59 6 65 4 6 -14 10 -48 10 l-55 0 8 -33z"/>
<path d="M4750 6897 c4 -18 5 -48 2 -65 -4 -28 -1 -32 18 -32 17 0 21 5 20 28
-1 15 -1 43 0 62 l2 35 7 -30 c4 -16 6 -45 3 -62 -4 -29 -2 -33 18 -33 19 0
22 4 18 32 -3 17 -2 47 2 65 l8 33 -53 0 -53 0 8 -33z"/>
<path d="M8878 6918 c7 -7 12 -36 12 -65 0 -39 4 -53 14 -53 11 0 15 14 15 56
0 31 2 58 5 62 6 6 9 -43 6 -90 -1 -22 3 -28 19 -28 17 0 20 7 20 55 0 30 2
59 6 65 4 6 -15 10 -51 10 -45 0 -55 -3 -46 -12z"/>
<path d="M9220 6897 c4 -18 5 -48 2 -65 -4 -28 -1 -32 18 -32 17 0 21 5 20 28
-1 15 -1 43 0 62 l2 35 7 -30 c4 -16 6 -45 3 -62 -4 -28 -2 -33 16 -33 18 0
21 6 21 55 0 30 2 59 6 65 4 6 -14 10 -48 10 l-55 0 8 -33z"/>
<path d="M3600 6896 c0 -2 7 -7 16 -10 8 -3 12 -2 9 4 -6 10 -25 14 -25 6z"/>
<path d="M10100 6890 c-9 -6 -10 -10 -3 -10 6 0 15 5 18 10 8 12 4 12 -15 0z"/>
<path d="M6422 6868 c7 -15 15 -23 17 -17 2 6 -4 18 -13 27 -15 15 -15 15 -4
-10z"/>
<path d="M6500 6880 c0 -6 33 -10 80 -10 47 0 80 4 80 10 0 6 -33 10 -80 10
-47 0 -80 -4 -80 -10z"/>
<path d="M7065 6880 c-4 -6 23 -10 74 -10 47 0 81 4 81 10 0 6 -31 10 -74 10
-41 0 -78 -4 -81 -10z"/>
<path d="M7296 6877 c-11 -8 -17 -19 -15 -24 2 -6 12 0 22 13 20 27 19 30 -7
11z"/>
<path d="M5070 6803 c0 -81 5 -79 14 5 5 41 3 62 -4 62 -6 0 -10 -27 -10 -67z"/>
<path d="M8635 6858 c-2 -7 0 -29 4 -48 l9 -35 1 48 c1 45 -5 60 -14 35z"/>
<path d="M5151 6753 c1 -57 1 -58 10 -18 11 55 11 75 -1 75 -6 0 -9 -25 -9
-57z"/>
<path d="M8555 6798 c-4 -10 -3 -23 1 -29 4 -7 10 -51 14 -98 l7 -86 1 100 c2
98 -9 150 -23 113z"/>
<path d="M8653 6705 c0 -27 2 -38 4 -22 2 15 2 37 0 50 -2 12 -4 0 -4 -28z"/>
<path d="M12703 6654 c-28 -28 -27 -20 -10 -259 1 -22 -3 -30 -18 -33 -70 -14
-60 -103 26 -240 13 -21 12 -24 -18 -48 -25 -20 -33 -33 -33 -58 0 -42 32 -83
73 -94 l32 -9 -32 -17 c-23 -11 -33 -24 -33 -40 0 -36 36 -74 73 -78 29 -3 32
-6 34 -43 6 -102 18 -160 35 -163 22 -4 26 11 43 183 l14 140 -3 -153 c-1 -83
2 -148 6 -144 14 14 67 149 82 211 21 82 23 106 9 103 -19 -3 -17 3 31 82 70
115 91 193 61 232 -13 18 -15 18 -44 2 -16 -9 -31 -14 -34 -12 -2 3 1 33 8 67
33 159 27 250 -18 282 -30 21 -35 19 -56 -16 l-19 -31 -12 23 c-23 43 -81 109
-110 124 -41 21 -57 19 -87 -11z m174 -706 c-2 -18 -4 -4 -4 32 0 36 2 50 4
33 2 -18 2 -48 0 -65z"/>
<path d="M3575 6620 c17 -4 39 -11 50 -15 l20 -8 -20 16 c-11 9 -33 16 -50 16
l-30 -1 30 -8z"/>
<path d="M10104 6614 c-10 -8 -13 -12 -5 -8 8 4 28 11 45 15 29 6 29 7 5 8
-14 1 -34 -6 -45 -15z"/>
<path d="M3551 6556 c10 -9 79 -14 74 -5 -4 5 -22 9 -42 9 -20 0 -34 -2 -32
-4z"/>
<path d="M10100 6550 c-10 -6 -2 -7 25 -3 49 7 58 13 19 13 -16 0 -36 -5 -44
-10z"/>
<path d="M3551 6496 c2 -2 22 -6 44 -9 27 -4 35 -3 25 3 -14 9 -79 15 -69 6z"/>
<path d="M10104 6484 c-10 -8 -13 -12 -5 -8 8 4 28 11 45 15 29 6 29 7 5 8
-14 1 -34 -6 -45 -15z"/>
<path d="M3550 6426 c0 -2 18 -6 39 -8 22 -2 37 0 35 4 -5 8 -74 11 -74 4z"/>
<path d="M10100 6420 c-10 -6 -2 -7 25 -3 49 7 58 13 19 13 -16 0 -36 -5 -44
-10z"/>
<path d="M2250 6337 l-115 -82 63 -3 c56 -3 63 -5 57 -20 -4 -9 -10 -27 -13
-40 -2 -13 -11 -26 -18 -29 -20 -8 -17 -23 5 -23 13 0 21 10 25 34 4 19 20 48
35 65 59 63 167 29 191 -60 6 -23 17 -39 25 -39 12 0 15 -16 15 -79 l0 -79
-27 7 c-26 7 -28 12 -31 64 l-3 57 -39 0 c-40 0 -40 0 -40 -39 0 -22 -4 -43
-10 -46 -6 -4 -10 12 -10 39 l0 46 -45 0 c-43 0 -45 -1 -45 -30 0 -16 -5 -30
-10 -30 -9 0 -420 101 -475 117 -13 3 -17 2 -10 -5 6 -5 53 -20 105 -33 73
-17 89 -24 70 -29 -25 -6 -25 -6 -2 -12 20 -6 22 -12 22 -80 0 -41 -2 -77 -5
-80 -5 -5 -107 11 -172 27 -15 3 -23 1 -23 -8 0 -9 240 -59 853 -178 l852
-165 5 -544 5 -545 3 556 2 556 -52 9 -53 9 -3 62 -3 62 -42 11 c-23 6 -48 13
-54 15 -10 3 -13 55 -13 215 0 133 -4 210 -10 210 -5 0 -10 -14 -10 -31 0 -34
-15 -32 -23 3 -2 13 -8 31 -12 40 -6 15 1 17 57 20 l63 3 -117 83 -116 82
-117 -82 -116 -83 65 -3 65 -3 -19 -41 c-10 -22 -24 -44 -31 -49 -11 -6 -10
-9 3 -14 24 -10 38 2 38 32 0 15 13 38 34 59 29 29 41 34 81 34 38 0 52 -5 75
-28 16 -16 32 -45 35 -65 4 -22 13 -37 21 -37 11 0 14 -31 14 -169 l0 -168
-25 5 c-18 3 -25 11 -25 28 0 22 -4 24 -44 24 -26 0 -47 -5 -50 -12 -5 -10 -7
-10 -12 0 -3 6 -20 12 -39 12 -25 0 -428 92 -507 116 -16 5 -18 21 -19 127 -1
73 -4 108 -8 87 l-7 -35 -17 39 c-9 21 -17 42 -17 47 0 4 27 9 61 11 l61 3
-113 80 c-62 44 -115 81 -118 82 -4 1 -58 -35 -121 -80z m193 -7 c43 -31 65
-51 56 -54 -30 -10 -45 -10 -68 3 -22 12 -65 11 -152 -4 -59 -11 -53 9 19 58
37 26 69 47 70 47 2 0 36 -22 75 -50z m728 3 c73 -49 79 -69 20 -58 -87 15
-130 16 -152 4 -23 -13 -38 -13 -68 -3 -8 3 13 24 55 54 38 27 71 49 73 49 2
1 35 -20 72 -46z m-1073 -347 l3 -89 -42 7 c-23 4 -46 9 -51 12 -9 6 -11 167
-2 176 3 4 24 1 47 -6 l42 -12 3 -88z m90 68 c65 -16 102 -34 72 -34 -12 0
-12 -2 -2 -9 9 -5 12 -29 10 -77 l-3 -70 -78 14 -78 14 2 89 c1 49 3 89 6 89
2 0 34 -7 71 -16z m161 -40 l31 -6 0 -84 0 -84 -27 6 c-16 3 -34 7 -40 10 -15
4 -19 164 -4 164 5 0 23 -3 40 -6z m126 -32 l70 -18 3 -77 c4 -85 6 -83 -68
-67 -99 22 -90 13 -90 91 0 58 3 70 14 66 8 -3 32 -8 53 -11 33 -5 32 -4 -10
8 -46 14 -71 26 -51 26 5 0 41 -9 79 -18z m153 -38 c20 -6 22 -12 22 -81 0
-73 -1 -75 -22 -69 -13 3 -29 6 -35 6 -9 0 -13 22 -13 75 0 79 2 81 48 69z
m102 -26 c39 -9 48 -14 34 -19 -17 -7 -16 -8 4 -8 20 -1 22 -5 22 -66 0 -63
-1 -65 -22 -60 -13 3 -41 9 -63 13 l-40 8 -3 63 -3 63 43 -6 43 -5 -45 13
c-57 18 -38 20 30 4z m147 -38 c2 0 3 -30 3 -66 l0 -65 -32 3 -33 3 -3 72 -3
72 33 -10 c18 -5 34 -9 35 -9z m83 -20 c21 -7 22 -8 5 -10 -14 -1 -10 -5 13
-11 31 -9 32 -11 32 -65 0 -53 -1 -56 -22 -51 -13 3 -40 9 -60 12 l-38 7 0 57
c0 32 3 61 7 64 8 9 30 7 63 -3z m104 -26 c12 -5 16 -21 16 -66 0 -56 -1 -59
-22 -56 -21 3 -23 9 -26 66 -3 62 1 68 32 56z m61 -23 c-16 -7 -14 -9 16 -15
20 -3 43 -4 51 -1 12 5 15 -6 17 -55 l2 -61 -38 7 c-76 14 -83 19 -83 67 0 45
13 67 40 66 10 0 9 -3 -5 -8z m52 -7 c-3 -3 -12 -4 -19 -1 -8 3 -5 6 6 6 11 1
17 -2 13 -5z m83 -75 c0 -81 -24 -77 -28 4 -2 46 0 57 13 57 12 0 15 -13 15
-61z m105 -30 c0 -41 -2 -44 -25 -42 -66 7 -70 10 -70 62 l0 49 48 -12 47 -12
0 -45z"/>
<path d="M2138 6043 c7 -3 16 -2 19 1 4 3 -2 6 -13 5 -11 0 -14 -3 -6 -6z"/>
<path d="M2178 6033 c7 -3 16 -2 19 1 4 3 -2 6 -13 5 -11 0 -14 -3 -6 -6z"/>
<path d="M2218 6023 c7 -3 16 -2 19 1 4 3 -2 6 -13 5 -11 0 -14 -3 -6 -6z"/>
<path d="M2508 5953 c7 -3 16 -2 19 1 4 3 -2 6 -13 5 -11 0 -14 -3 -6 -6z"/>
<path d="M2918 5853 c7 -3 16 -2 19 1 4 3 -2 6 -13 5 -11 0 -14 -3 -6 -6z"/>
<path d="M10500 6337 l-115 -82 63 -3 c56 -3 63 -5 57 -20 -4 -9 -10 -27 -12
-40 -8 -35 -23 -37 -23 -3 0 17 -4 31 -10 31 -6 0 -10 -77 -10 -210 0 -160 -3
-212 -12 -215 -7 -2 -32 -9 -55 -15 l-42 -11 -3 -62 -3 -62 -52 -9 -53 -9 2
-571 3 -571 5 559 5 560 853 165 c612 119 852 169 852 178 0 9 -8 11 -22 8
-66 -16 -168 -32 -173 -27 -3 3 -5 39 -5 80 0 68 2 74 23 80 22 6 22 6 -3 12
-19 5 -3 12 70 29 52 13 100 28 105 33 7 7 3 8 -10 5 -55 -16 -466 -117 -475
-117 -5 0 -10 14 -10 30 0 29 -2 30 -45 30 l-45 0 0 -46 c0 -27 -4 -43 -10
-39 -5 3 -10 24 -10 46 0 39 0 39 -40 39 l-39 0 -3 -57 c-3 -55 -4 -58 -30
-61 l-28 -3 0 74 c0 66 2 75 20 80 14 3 20 14 20 32 0 18 12 39 35 62 33 33
38 35 87 31 60 -6 93 -36 104 -93 4 -25 11 -35 25 -35 22 0 25 15 5 23 -7 3
-16 16 -18 29 -3 13 -9 31 -13 40 -6 15 1 17 57 20 l63 3 -117 83 -116 82
-117 -82 -116 -83 65 -3 64 -3 -16 -39 c-20 -47 -29 -50 -35 -12 -2 15 -5 -28
-6 -95 l-1 -122 -37 -10 c-157 -42 -458 -111 -486 -111 -20 0 -38 -6 -40 -12
-4 -10 -7 -10 -15 0 -6 8 -24 12 -48 10 -31 -2 -40 -7 -42 -24 -2 -14 -12 -24
-28 -27 l-24 -4 0 168 c0 138 3 169 14 169 8 0 17 15 20 35 11 57 44 87 104
93 49 4 54 2 87 -31 22 -22 35 -45 35 -61 0 -29 25 -45 43 -27 8 8 8 11 -1 11
-11 0 -42 60 -42 81 0 4 27 9 61 11 l61 3 -113 80 c-62 44 -115 81 -118 82 -4
1 -58 -35 -121 -80z m1220 -326 c0 -50 -4 -92 -8 -95 -5 -3 -28 -8 -51 -12
l-42 -7 3 89 3 88 40 12 c22 7 43 13 48 13 4 1 7 -39 7 -88z m-111 -30 l2 -89
-78 -14 -78 -14 -3 70 c-2 48 1 72 10 77 10 7 10 9 -1 9 -28 0 2 15 62 32 34
9 67 17 73 17 8 1 12 -29 13 -88z m-189 -41 c0 -56 -4 -82 -12 -84 -7 -3 -25
-7 -40 -10 l-28 -6 0 80 c0 74 2 81 23 90 53 21 57 16 57 -70z m-92 54 c-4 -3
-28 -12 -55 -20 -42 -12 -43 -13 -10 -8 21 3 45 8 53 11 11 4 14 -8 14 -66 0
-78 9 -69 -90 -91 -74 -16 -72 -18 -68 67 l3 77 65 17 c70 18 97 22 88 13z
m-188 -119 c0 -53 -4 -75 -12 -75 -7 0 -23 -3 -35 -6 -22 -6 -23 -4 -23 69 0
79 2 82 53 86 15 1 17 -9 17 -74z m-125 39 c-27 -7 -57 -13 -65 -13 -21 1 70
27 95 27 11 0 -2 -6 -30 -14z m43 -66 l-3 -62 -40 -8 c-22 -4 -50 -10 -62 -13
-22 -5 -23 -3 -23 58 l0 64 48 10 c86 19 83 21 80 -49z m-152 -84 c-3 -8 -19
-14 -36 -14 l-30 0 0 65 c0 64 0 64 33 73 l32 8 3 -59 c2 -33 1 -66 -2 -73z
m-78 40 l3 -62 -38 -6 c-21 -4 -48 -10 -60 -13 -22 -5 -23 -2 -23 51 0 54 1
56 33 65 22 6 26 10 12 11 -17 2 -16 3 5 10 55 18 65 10 68 -56z m-140 -26
c-3 -57 -5 -63 -25 -66 -22 -3 -23 0 -23 56 0 59 5 69 38 71 10 1 12 -15 10
-61z m-70 30 c7 -7 12 -31 12 -55 0 -48 -7 -53 -83 -67 l-38 -7 2 61 c2 49 5
60 17 55 8 -3 31 -2 51 1 30 6 32 8 16 15 -14 5 -15 8 -4 8 8 1 20 -4 27 -11z
m-51 -4 c-3 -3 -12 -4 -19 -1 -8 3 -5 6 6 6 11 1 17 -2 13 -5z m-79 -71 c-4
-81 -28 -85 -28 -4 0 48 3 61 15 61 13 0 15 -11 13 -57z m-38 -13 c0 -53 -3
-56 -70 -63 -23 -2 -25 1 -25 43 0 44 0 44 45 56 25 7 46 12 48 13 1 1 2 -21
2 -49z"/>
<path d="M11568 6043 c7 -3 16 -2 19 1 4 3 -2 6 -13 5 -11 0 -14 -3 -6 -6z"/>
<path d="M11528 6033 c7 -3 16 -2 19 1 4 3 -2 6 -13 5 -11 0 -14 -3 -6 -6z"/>
<path d="M11488 6023 c7 -3 16 -2 19 1 4 3 -2 6 -13 5 -11 0 -14 -3 -6 -6z"/>
<path d="M11198 5953 c7 -3 16 -2 19 1 4 3 -2 6 -13 5 -11 0 -14 -3 -6 -6z"/>
<path d="M10788 5853 c7 -3 16 -2 19 1 4 3 -2 6 -13 5 -11 0 -14 -3 -6 -6z"/>
<path d="M17151 6394 c-176 -88 -172 -342 6 -430 26 -13 59 -19 109 -19 61 0
77 4 120 30 132 82 154 266 45 375 -76 75 -183 92 -280 44z"/>
<path d="M22790 6404 c-73 -31 -131 -108 -145 -191 -9 -59 17 -144 60 -192
148 -163 417 -60 418 159 0 97 -60 189 -149 226 -44 18 -140 17 -184 -2z"/>
<path d="M3680 6373 l-31 -38 27 -3 c18 -3 35 5 55 24 16 15 31 26 33 23 2 -2
13 -22 25 -44 22 -41 19 -17 -5 42 -20 48 -62 46 -104 -4z"/>
<path d="M9932 6358 c-34 -89 -34 -95 -2 -35 l31 58 30 -25 c36 -31 86 -37 70
-8 -25 42 -50 62 -79 62 -26 0 -31 -6 -50 -52z"/>
<path d="M3551 6366 c2 -2 22 -6 44 -9 27 -4 35 -3 25 3 -14 9 -79 15 -69 6z"/>
<path d="M10103 6363 c-7 -2 -13 -9 -13 -14 0 -6 5 -7 12 -3 6 4 25 11 42 15
l31 7 -30 0 c-16 0 -36 -2 -42 -5z"/>
<path d="M3736 6334 c-18 -12 -18 -14 -3 -14 10 0 22 -11 27 -25 5 -14 14 -25
20 -25 14 0 12 9 -8 47 -16 29 -19 30 -36 17z"/>
<path d="M9946 6308 c-19 -51 -13 -62 11 -19 12 21 24 30 36 27 21 -5 13 10
-12 24 -15 8 -21 3 -35 -32z"/>
<path d="M16555 6275 l-190 -73 -5 -307 -5 -306 -35 26 c-102 77 -228 117
-365 118 -249 1 -443 -121 -561 -354 -117 -233 -106 -571 27 -796 54 -91 162
-194 249 -236 112 -55 185 -70 310 -65 125 6 217 34 311 97 34 22 63 41 65 41
2 0 4 -25 4 -55 l0 -55 195 0 195 0 0 1020 c0 561 -1 1020 -2 1019 -2 -1 -88
-34 -193 -74z m-389 -934 c110 -49 182 -161 191 -300 19 -267 -178 -446 -414
-376 -219 65 -292 409 -128 603 79 94 231 126 351 73z"/>
<path d="M3867 6275 l-28 -35 24 0 c13 0 32 9 42 20 25 28 29 26 50 -20 26
-58 29 -43 4 18 -27 64 -51 68 -92 17z"/>
<path d="M9767 6268 c-19 -48 -16 -64 3 -18 15 35 21 37 45 10 10 -11 29 -20
42 -20 l24 0 -27 35 c-37 49 -66 47 -87 -7z"/>
<path d="M3610 6290 c8 -5 20 -10 25 -10 6 0 3 5 -5 10 -8 5 -19 10 -25 10 -5
0 -3 -5 5 -10z"/>
<path d="M10095 6290 c-3 -6 1 -7 9 -4 18 7 21 14 7 14 -6 0 -13 -4 -16 -10z"/>
<path d="M780 6228 c-56 -89 -117 -232 -147 -346 -35 -133 -43 -337 -19 -484
18 -109 76 -295 121 -391 31 -64 62 -82 94 -53 27 24 105 189 135 285 60 189
71 414 31 601 -31 141 -147 450 -170 450 -3 0 -23 -28 -45 -62z m47 -310 c-3
-8 -6 -5 -6 6 -1 11 2 17 5 13 3 -3 4 -12 1 -19z m38 -288 c28 -250 17 -439
-32 -595 -35 -109 -40 -81 -7 41 35 134 43 351 20 585 -9 92 -15 177 -15 190
2 33 16 -58 34 -221z"/>
<path d="M2311 6239 c-21 -20 -41 -59 -41 -80 0 -5 43 -9 95 -9 l95 0 0 26 c0
15 -12 38 -29 55 -36 36 -86 39 -120 8z"/>
<path d="M3039 6231 c-17 -17 -29 -40 -29 -55 l0 -26 95 0 c52 0 95 4 95 9 0
21 -20 60 -41 80 -34 31 -84 28 -120 -8z"/>
<path d="M3680 6006 l0 -256 24 -10 c13 -5 40 -12 60 -15 l36 -7 0 248 0 249
-43 17 c-23 10 -50 20 -59 24 -17 6 -18 -10 -18 -250z"/>
<path d="M9973 6235 l-53 -24 0 -247 0 -246 36 7 c20 3 47 10 60 15 l24 10 0
255 c0 140 -3 255 -7 254 -5 0 -32 -11 -60 -24z"/>
<path d="M10561 6239 c-21 -20 -41 -59 -41 -80 0 -5 43 -9 95 -9 l95 0 0 26
c0 15 -12 38 -29 55 -36 36 -86 39 -120 8z"/>
<path d="M11289 6231 c-17 -17 -29 -40 -29 -55 l0 -26 95 0 c52 0 95 4 95 9 0
21 -20 60 -41 80 -34 31 -84 28 -120 -8z"/>
<path d="M18390 6070 l0 -190 313 -2 312 -3 3 -787 2 -788 164 0 c90 0 184 -3
210 -6 l46 -7 0 792 0 791 193 0 c107 0 249 3 315 7 l122 6 0 189 0 188 -840
0 -840 0 0 -190z"/>
<path d="M3910 6240 c-13 -8 -13 -10 1 -10 9 0 19 -9 22 -20 3 -11 10 -20 15
-20 7 0 6 11 -1 30 -12 33 -15 34 -37 20z"/>
<path d="M9786 6241 c-3 -4 -10 -21 -16 -37 l-11 -29 29 30 c27 29 31 45 12
45 -5 0 -11 -4 -14 -9z"/>
<path d="M3551 6236 c2 -2 22 -6 44 -9 27 -4 35 -3 25 3 -14 9 -79 15 -69 6z"/>
<path d="M10100 6230 c-10 -6 -2 -7 25 -3 49 7 58 13 19 13 -16 0 -36 -5 -44
-10z"/>
<path d="M4030 6203 c-20 -25 -20 -28 -5 -31 9 -2 27 6 40 18 l23 22 17 -29
c9 -15 13 -19 10 -8 -4 11 -10 28 -12 38 -8 26 -49 21 -73 -10z"/>
<path d="M9614 6195 c-19 -47 -17 -57 4 -17 18 33 18 33 37 12 18 -20 55 -28
55 -12 0 15 -46 52 -64 52 -10 0 -23 -14 -32 -35z"/>
<path d="M3850 5946 l0 -245 43 -12 c23 -6 45 -13 50 -16 4 -2 7 104 7 235 0
183 -3 241 -12 245 -7 3 -30 12 -50 21 l-38 16 0 -244z"/>
<path d="M9818 6168 l-48 -21 0 -238 0 -238 46 14 c25 7 48 16 50 18 2 2 3
112 2 245 l-3 241 -47 -21z"/>
<path d="M4075 6172 c-6 -4 -2 -16 12 -31 25 -26 29 -19 10 16 -7 12 -17 19
-22 15z"/>
<path d="M9621 6150 c-5 -16 -6 -30 -1 -30 5 0 12 9 15 20 3 11 11 20 16 20 6
0 7 5 4 10 -11 18 -23 11 -34 -20z"/>
<path d="M3600 6166 c0 -2 7 -7 16 -10 8 -3 12 -2 9 4 -6 10 -25 14 -25 6z"/>
<path d="M10095 6160 c-3 -6 1 -7 9 -4 18 7 21 14 7 14 -6 0 -13 -4 -16 -10z"/>
<path d="M4235 6110 l-29 -30 26 0 c14 0 31 7 38 15 19 23 28 19 50 -22 12
-21 19 -31 16 -23 -27 85 -30 90 -51 90 -12 0 -34 -13 -50 -30z"/>
<path d="M9405 6104 c-19 -46 -19 -57 1 -21 17 31 26 33 44 12 7 -8 23 -15 37
-15 l24 0 -23 30 c-31 43 -63 40 -83 -6z"/>
<path d="M1808 6123 c7 -3 16 -2 19 1 4 3 -2 6 -13 5 -11 0 -14 -3 -6 -6z"/>
<path d="M11898 6123 c7 -3 16 -2 19 1 4 3 -2 6 -13 5 -11 0 -14 -3 -6 -6z"/>
<path d="M1848 6113 c7 -3 16 -2 19 1 4 3 -2 6 -13 5 -11 0 -14 -3 -6 -6z"/>
<path d="M4010 5890 c0 -258 -7 -235 73 -254 l27 -6 0 223 0 223 -45 22 c-25
12 -48 22 -50 22 -3 0 -5 -104 -5 -230z"/>
<path d="M9658 6098 l-48 -21 0 -224 c0 -191 2 -224 14 -220 8 3 31 9 50 13
l36 6 0 234 c0 129 -1 234 -2 234 -2 -1 -24 -10 -50 -22z"/>
<path d="M11858 6113 c7 -3 16 -2 19 1 4 3 -2 6 -13 5 -11 0 -14 -3 -6 -6z"/>
<path d="M3000 5995 l0 -115 45 0 45 0 0 115 0 115 -45 0 -45 0 0 -115z"/>
<path d="M3110 5995 l0 -115 45 0 45 0 0 115 0 115 -45 0 -45 0 0 -115z"/>
<path d="M3551 6106 c2 -2 22 -6 44 -9 27 -4 35 -3 25 3 -14 9 -79 15 -69 6z"/>
<path d="M10100 6100 c-10 -6 -2 -7 25 -3 49 7 58 13 19 13 -16 0 -36 -5 -44
-10z"/>
<path d="M10520 5995 l0 -115 45 0 45 0 0 115 0 115 -45 0 -45 0 0 -115z"/>
<path d="M10630 5995 l0 -115 45 0 45 0 0 115 0 115 -45 0 -45 0 0 -115z"/>
<path d="M11818 6103 c7 -3 16 -2 19 1 4 3 -2 6 -13 5 -11 0 -14 -3 -6 -6z"/>
<path d="M4270 6070 c-13 -8 -13 -10 2 -10 10 0 22 -9 28 -21 16 -29 23 -17 9
15 -13 29 -17 30 -39 16z"/>
<path d="M9412 6055 c-14 -31 -15 -35 -3 -35 5 0 13 9 16 20 3 11 13 20 21 20
8 0 12 5 9 10 -11 18 -32 11 -43 -15z"/>
<path d="M4402 6037 c-12 -13 -22 -26 -22 -30 0 -13 38 -7 50 8 18 22 26 19
40 -15 19 -46 22 -30 3 18 -18 48 -39 53 -71 19z"/>
<path d="M9260 6041 c-14 -27 -13 -36 4 -22 10 9 17 7 27 -6 12 -15 12 -16 -2
-11 -11 4 -20 -2 -28 -18 -17 -37 -14 -40 14 -10 15 16 35 26 51 26 l28 0 -29
30 c-33 35 -50 38 -65 11z"/>
<path d="M3551 6046 c2 -2 22 -6 44 -9 28 -5 34 -4 20 3 -19 8 -73 14 -64 6z"/>
<path d="M10105 6040 c-14 -7 -8 -8 20 -3 22 3 42 7 44 9 9 8 -45 2 -64 -6z"/>
<path d="M4210 5815 c0 -118 3 -215 8 -215 4 0 28 -7 55 -15 l47 -14 0 208 0
209 -49 21 c-27 11 -52 21 -55 21 -3 0 -6 -97 -6 -215z"/>
<path d="M9448 6008 l-48 -20 0 -209 c0 -162 3 -207 13 -204 6 2 31 9 55 15
l42 11 0 214 c0 118 -3 215 -7 214 -5 0 -29 -10 -55 -21z"/>
<path d="M4436 6002 c-4 -7 -2 -12 3 -12 6 0 11 -7 11 -15 0 -8 5 -15 10 -15
14 0 13 13 -3 35 -10 12 -16 14 -21 7z"/>
<path d="M3550 5976 c0 -2 18 -6 39 -8 22 -2 37 0 35 4 -5 8 -74 11 -74 4z"/>
<path d="M4540 5955 l-23 -25 26 0 c25 0 57 -23 57 -41 0 -5 4 -9 9 -9 5 0 4
13 -2 29 -7 20 -15 27 -26 23 -14 -5 -14 -4 -2 12 14 16 16 16 28 -8 19 -37
26 -32 10 7 -17 41 -46 46 -77 12z"/>
<path d="M9109 5954 c-5 -15 -8 -29 -5 -31 2 -3 7 5 11 16 8 25 18 27 35 6 7
-8 21 -15 31 -15 18 0 19 1 3 25 -22 34 -61 34 -75 -1z"/>
<path d="M10096 5972 c-2 -4 13 -6 35 -4 21 2 39 6 39 8 0 7 -69 4 -74 -4z"/>
<path d="M4380 5756 l0 -203 45 -10 45 -10 0 193 c0 213 4 198 -64 224 l-26
10 0 -204z"/>
<path d="M9293 5940 l-43 -19 0 -197 c0 -183 1 -196 18 -189 9 3 29 9 45 12
l27 6 0 203 c0 112 -1 204 -2 203 -2 0 -22 -9 -45 -19z"/>
<path d="M9120 5920 c-17 -32 -6 -46 13 -17 9 15 13 28 7 32 -5 3 -14 -4 -20
-15z"/>
<path d="M3551 5916 c2 -2 22 -6 44 -9 27 -4 35 -3 25 3 -14 9 -79 15 -69 6z"/>
<path d="M10105 5910 c-14 -7 -8 -8 20 -3 22 3 42 7 44 9 9 8 -45 2 -64 -6z"/>
<path d="M4686 5885 c-16 -24 -15 -25 3 -25 10 0 24 7 31 15 17 21 27 19 35
-6 4 -11 9 -18 11 -16 3 2 -1 16 -7 31 -16 34 -51 34 -73 1z"/>
<path d="M8961 5879 c-15 -44 -13 -49 5 -16 15 27 17 28 34 12 10 -9 26 -15
35 -13 14 3 14 5 0 26 -24 33 -61 29 -74 -9z"/>
<path d="M9153 5878 l-43 -19 0 -183 0 -184 41 10 c22 6 43 16 45 22 3 7 3 93
2 192 l-3 180 -42 -18z"/>
<path d="M4530 5701 l0 -188 28 -6 c15 -3 35 -9 45 -12 16 -7 17 6 17 178 l0
185 -40 16 c-22 9 -43 16 -45 16 -3 0 -5 -85 -5 -189z"/>
<path d="M4727 5863 c-3 -5 3 -20 14 -33 l20 -25 -6 25 c-9 30 -21 45 -28 33z"/>
<path d="M8971 5843 c-16 -34 -8 -40 13 -9 8 14 12 27 7 30 -4 3 -13 -6 -20
-21z"/>
<path d="M3550 5846 c0 -2 18 -6 39 -8 22 -2 37 0 35 4 -5 8 -74 11 -74 4z"/>
<path d="M10096 5842 c-2 -4 13 -6 35 -4 21 2 39 6 39 8 0 7 -69 4 -74 -4z"/>
<path d="M4830 5815 c-23 -24 -23 -25 -3 -25 11 0 26 7 34 16 12 14 14 14 26
-2 16 -21 17 -11 3 17 -14 26 -32 24 -60 -6z"/>
<path d="M8825 5804 c-19 -46 -19 -57 0 -24 l15 25 -6 -29 -7 -29 22 22 c11
11 31 21 43 21 l21 0 -23 25 c-32 34 -47 31 -65 -11z m41 -11 c-7 -7 -26 7
-26 19 0 6 6 6 15 -2 9 -7 13 -15 11 -17z"/>
<path d="M4670 5653 l0 -180 45 -10 45 -10 0 172 0 173 -27 10 c-16 5 -36 13
-45 17 -17 7 -18 -5 -18 -172z"/>
<path d="M8998 5813 l-38 -16 0 -174 c0 -163 1 -175 18 -168 9 3 29 9 45 12
l27 6 0 178 c0 99 -3 179 -7 178 -5 -1 -25 -8 -45 -16z"/>
<path d="M6357 5790 c-4 -15 -14 -20 -42 -20 -25 0 -35 -4 -32 -12 2 -7 14
-12 26 -11 15 2 24 -5 31 -23 6 -14 10 -162 10 -345 l0 -319 -33 0 c-28 0 -67
-26 -67 -45 0 -3 50 -5 110 -5 91 0 110 3 110 15 0 8 -9 15 -20 15 -11 0 -20
5 -20 10 0 6 -9 10 -20 10 -20 0 -20 5 -18 343 l3 342 28 3 c39 5 33 22 -8 22
-28 0 -35 4 -35 20 0 11 -4 20 -9 20 -5 0 -11 -9 -14 -20z"/>
<path d="M6436 5798 c21 -4 217 -6 434 -6 217 1 370 3 340 5 -123 6 -810 7
-774 1z"/>
<path d="M7283 5803 c9 -2 23 -2 30 0 6 3 -1 5 -18 5 -16 0 -22 -2 -12 -5z"/>
<path d="M7343 5791 c-4 -16 -13 -21 -39 -21 -19 0 -34 -4 -34 -10 0 -5 11
-10 25 -10 14 0 29 -8 35 -20 7 -12 9 -131 8 -342 l-3 -323 -22 -3 c-13 -2
-23 -8 -23 -13 0 -5 -9 -9 -20 -9 -11 0 -20 -7 -20 -15 0 -12 19 -15 110 -15
67 0 110 4 110 10 0 6 -4 10 -10 10 -5 0 -10 7 -10 15 0 10 -11 15 -35 15
l-35 0 2 343 3 342 24 0 c13 0 26 6 28 13 3 8 -7 12 -31 12 -25 0 -36 5 -36
14 0 24 -21 30 -27 7z"/>
<path d="M4867 5794 c-6 -10 20 -51 27 -43 2 2 -1 15 -8 28 -7 13 -16 20 -19
15z"/>
<path d="M7492 5415 c-2 -214 -3 -441 -2 -503 1 -94 -1 -113 -14 -118 -12 -5
-16 -21 -16 -65 l0 -59 38 0 37 0 -3 60 c-3 43 -8 60 -18 60 -12 0 -14 80 -17
508 l-2 507 -3 -390z"/>
<path d="M3551 5786 c2 -2 22 -6 44 -9 27 -4 35 -3 25 3 -14 9 -79 15 -69 6z"/>
<path d="M10100 5780 c-10 -6 -2 -7 25 -3 49 7 58 13 19 13 -16 0 -36 -5 -44
-10z"/>
<path d="M4820 5601 l0 -168 28 -6 c15 -3 35 -9 45 -12 16 -7 17 3 15 155 l-3
163 -42 18 -43 18 0 -168z"/>
<path d="M4962 5750 c-10 -16 -10 -20 1 -20 18 0 53 -27 45 -35 -3 -4 -16 -2
-27 5 -21 11 -21 10 -21 -145 l0 -155 26 -10 c14 -6 27 -10 30 -10 3 0 4 72 3
160 0 87 2 163 5 169 10 16 -13 61 -31 61 -10 0 -24 -9 -31 -20z m52 -16 c9
-24 2 -26 -12 -4 -7 11 -8 20 -3 20 5 0 12 -7 15 -16z"/>
<path d="M8706 5755 c-3 -8 -2 -22 1 -32 5 -12 3 -14 -7 -8 -9 5 -11 4 -6 -4
4 -7 7 -84 6 -173 -1 -144 1 -160 15 -154 9 3 23 6 31 6 11 0 14 28 14 156 l0
156 -25 -6 c-19 -5 -23 -3 -19 9 4 8 17 18 30 21 20 5 22 9 13 25 -12 23 -45
25 -53 4z m28 -13 c3 -5 -1 -9 -9 -9 -8 0 -15 4 -15 9 0 4 4 8 9 8 6 0 12 -4
15 -8z"/>
<path d="M8858 5752 l-38 -17 0 -162 0 -162 43 13 42 12 3 167 c1 92 -1 167
-5 166 -5 0 -25 -8 -45 -17z"/>
<path d="M6572 5745 c-52 -23 -72 -79 -71 -200 1 -93 2 -96 10 -47 16 97 56
142 112 128 41 -10 66 -38 92 -101 l25 -60 0 80 c0 99 -12 143 -48 178 -35 33
-77 41 -120 22z"/>
<path d="M6820 5747 c-45 -23 -70 -73 -70 -143 0 -35 4 -64 9 -64 5 0 16 -18
25 -40 l16 -40 63 0 63 0 15 43 c9 25 20 41 28 39 20 -4 8 117 -15 157 -17 29
-67 61 -96 61 -7 0 -24 -6 -38 -13z"/>
<path d="M7060 5747 c-13 -7 -35 -28 -47 -46 -20 -30 -23 -46 -22 -130 l0 -96
15 46 c15 52 71 109 105 109 50 0 85 -45 99 -129 6 -38 8 -30 9 52 1 115 -13
157 -61 187 -38 23 -63 25 -98 7z"/>
<path d="M5200 5725 c-25 -13 -39 -24 -32 -25 7 0 27 7 44 16 32 16 35 16 118
-12 8 -3 -5 6 -29 20 -23 14 -46 26 -50 26 -3 -1 -26 -12 -51 -25z"/>
<path d="M5470 5724 c-43 -24 -39 -24 23 -2 20 8 37 6 67 -6 22 -9 44 -16 48
-16 7 1 -79 49 -88 49 -3 0 -25 -11 -50 -25z"/>
<path d="M5730 5725 c-51 -27 -39 -34 15 -8 28 14 41 15 63 6 60 -24 65 -23
27 1 -48 31 -49 31 -105 1z"/>
<path d="M6000 5724 c-43 -24 -39 -24 23 -2 20 8 37 6 67 -6 22 -9 44 -16 48
-16 7 1 -79 49 -88 49 -3 0 -25 -11 -50 -25z"/>
<path d="M6232 5273 c-2 -476 -2 -483 -22 -483 -18 0 -20 -7 -20 -60 l0 -60
35 0 35 0 0 60 c0 33 -4 60 -10 60 -6 0 -11 172 -13 483 l-2 482 -3 -482z"/>
<path d="M7620 5725 c-51 -27 -39 -34 15 -8 28 14 41 15 63 6 59 -23 65 -23
22 1 -25 14 -47 25 -50 25 -3 0 -25 -11 -50 -24z"/>
<path d="M7890 5724 c-43 -24 -39 -24 23 -2 20 8 37 6 67 -6 22 -9 44 -16 48
-16 7 1 -79 49 -88 49 -3 0 -25 -11 -50 -25z"/>
<path d="M8150 5725 c-51 -27 -39 -34 15 -8 28 14 41 15 63 6 59 -23 65 -23
22 1 -25 14 -47 25 -50 25 -3 0 -25 -11 -50 -24z"/>
<path d="M8420 5725 c-52 -28 -48 -32 10 -9 37 15 43 15 80 0 22 -9 44 -16 48
-16 7 1 -79 49 -88 49 -3 0 -25 -11 -50 -24z"/>
<path d="M3608 5713 c7 -3 16 -2 19 1 4 3 -2 6 -13 5 -11 0 -14 -3 -6 -6z"/>
<path d="M10098 5713 c7 -3 16 -2 19 1 4 3 -2 6 -13 5 -11 0 -14 -3 -6 -6z"/>
<path d="M20424 5695 c-255 -55 -445 -224 -531 -470 -25 -74 -27 -92 -28 -235
0 -145 2 -161 29 -244 47 -142 144 -276 259 -354 135 -93 267 -132 453 -132
226 0 388 63 534 210 137 136 198 276 207 476 7 145 -13 247 -73 371 -92 191
-258 321 -478 373 -96 23 -277 26 -372 5z m299 -371 c71 -23 137 -81 177 -155
34 -62 35 -67 35 -179 0 -110 -1 -118 -33 -182 -58 -118 -158 -178 -297 -178
-181 0 -303 105 -335 291 -49 281 185 489 453 403z"/>
<path d="M22213 5691 c-75 -28 -139 -77 -182 -143 -22 -31 -42 -54 -45 -51 -3
4 -6 44 -6 90 l0 83 -190 0 -190 0 0 -685 0 -685 195 0 195 0 0 398 0 398 26
52 c29 59 87 111 160 144 42 20 66 23 162 23 l112 0 0 198 0 197 -92 0 c-65
-1 -109 -6 -145 -19z"/>
<path d="M24030 5696 c-69 -19 -130 -49 -182 -89 -25 -19 -49 -33 -52 -30 -3
4 -6 26 -6 50 l0 43 -190 0 -190 0 0 -685 0 -685 195 0 195 0 0 459 0 459 55
50 c142 130 341 105 412 -53 16 -36 18 -81 21 -477 l3 -438 194 0 195 0 0 483
c0 534 -4 570 -62 679 -61 114 -170 198 -303 233 -70 18 -221 18 -285 1z"/>
<path d="M25464 5696 c-285 -65 -491 -269 -550 -546 -20 -96 -18 -249 6 -347
63 -264 259 -460 523 -523 113 -27 295 -27 403 0 137 34 237 91 334 189 137
138 198 277 207 477 7 146 -13 247 -74 374 -83 173 -253 312 -448 366 -82 23
-318 28 -401 10z m312 -377 c184 -69 263 -315 165 -514 -57 -115 -158 -175
-296 -175 -182 0 -305 109 -335 295 -18 112 13 232 80 308 92 105 244 139 386
86z"/>
<path d="M3689 5686 c6 -8 17 -33 24 -57 14 -47 43 -65 53 -32 3 10 11 31 19
46 16 31 18 28 -50 46 -53 14 -60 14 -46 -3z"/>
<path d="M9973 5687 c-41 -12 -67 -27 -45 -27 6 0 16 -18 22 -41 15 -54 40
-49 59 11 8 25 18 47 23 48 13 6 9 22 -4 21 -7 -1 -32 -6 -55 -12z"/>
<path d="M17070 4985 l0 -685 195 0 195 0 0 685 0 685 -195 0 -195 0 0 -685z"/>
<path d="M22690 4985 l0 -685 195 0 195 0 0 685 0 685 -195 0 -195 0 0 -685z"/>
<path d="M3563 5653 c9 -2 25 -2 35 0 9 3 1 5 -18 5 -19 0 -27 -2 -17 -5z"/>
<path d="M3856 5652 c-3 -2 1 -14 9 -26 8 -11 15 -30 15 -42 0 -29 24 -49 37
-32 6 7 13 24 16 38 3 14 7 29 9 34 3 10 -78 37 -86 28z"/>
<path d="M9830 5648 c-60 -15 -61 -16 -51 -35 5 -10 14 -31 20 -47 9 -23 14
-26 26 -16 7 6 17 26 21 43 3 18 11 38 17 45 14 18 7 20 -33 10z"/>
<path d="M10100 5650 c-10 -6 -2 -7 25 -3 49 7 58 13 19 13 -16 0 -36 -5 -44
-10z"/>
<path d="M4010 5611 c0 -4 3 -11 8 -15 4 -4 12 -24 17 -44 10 -35 45 -59 45
-30 0 7 7 26 15 41 16 31 18 29 -47 46 -21 5 -38 6 -38 2z"/>
<path d="M5193 5613 c15 -4 17 -19 17 -129 l0 -124 45 0 45 0 0 124 c0 110 2
125 18 129 9 3 -19 5 -63 5 -44 0 -72 -2 -62 -5z"/>
<path d="M5458 5613 c9 -3 12 -39 12 -129 l0 -125 48 3 47 3 0 120 c0 97 3
121 15 127 8 4 -19 7 -60 7 -41 -1 -69 -3 -62 -6z"/>
<path d="M5723 5613 c15 -4 17 -19 17 -129 l0 -124 45 0 45 0 0 124 c0 110 2
125 18 129 9 3 -19 5 -63 5 -44 0 -72 -2 -62 -5z"/>
<path d="M5988 5613 c9 -3 12 -39 12 -129 l0 -125 48 3 47 3 0 120 c0 97 3
121 15 127 8 4 -19 7 -60 7 -41 -1 -69 -3 -62 -6z"/>
<path d="M7613 5613 c15 -4 17 -19 17 -129 l0 -124 45 0 45 0 0 124 c0 110 2
125 18 129 9 3 -19 5 -63 5 -44 0 -72 -2 -62 -5z"/>
<path d="M7878 5613 c9 -3 12 -39 12 -129 l0 -125 48 3 47 3 0 120 c0 97 3
121 15 127 8 4 -19 7 -60 7 -41 -1 -69 -3 -62 -6z"/>
<path d="M8143 5613 c15 -4 17 -19 17 -129 l0 -124 45 0 45 0 0 124 c0 110 2
125 18 129 9 3 -19 5 -63 5 -44 0 -72 -2 -62 -5z"/>
<path d="M8410 5612 c12 -6 15 -30 15 -127 l0 -120 45 0 45 0 0 120 c0 97 3
121 15 127 8 4 -19 7 -60 7 -41 0 -68 -3 -60 -7z"/>
<path d="M9659 5603 l-47 -13 19 -38 c11 -20 25 -37 31 -37 10 0 53 96 45 100
-1 1 -23 -4 -48 -12z"/>
<path d="M11704 5565 c-30 -31 -50 -64 -66 -112 -22 -66 -23 -81 -26 -503 -2
-239 -1 -476 3 -526 l7 -91 141 -17 c78 -9 145 -16 148 -16 3 0 9 206 13 458
9 615 -3 728 -85 814 -50 53 -80 51 -135 -7z"/>
<path d="M1882 5580 c-12 -12 -30 -37 -41 -58 -44 -88 -46 -120 -46 -679 0
-292 3 -534 6 -538 4 -3 72 2 151 11 l145 17 7 96 c10 158 7 870 -5 941 -13
83 -54 174 -91 205 -37 32 -95 34 -126 5z"/>
<path d="M3608 5583 c7 -3 16 -2 19 1 4 3 -2 6 -13 5 -11 0 -14 -3 -6 -6z"/>
<path d="M10098 5583 c7 -3 16 -2 19 1 4 3 -2 6 -13 5 -11 0 -14 -3 -6 -6z"/>
<path d="M4226 5528 c25 -54 30 -62 43 -66 6 -2 17 10 24 27 6 17 15 31 19 31
4 0 8 4 8 9 0 8 -74 31 -99 31 -5 0 -3 -15 5 -32z"/>
<path d="M9438 5548 c-34 -9 -53 -28 -29 -28 5 0 14 -14 20 -31 13 -36 30 -34
50 7 8 16 18 37 23 47 10 20 -4 21 -64 5z"/>
<path d="M2306 5527 c-13 -13 -34 -50 -47 -83 l-24 -59 -3 -517 -3 -518 23 1
c13 0 68 6 123 12 l100 12 7 85 c10 136 9 778 -2 855 -14 95 -39 162 -76 202
-37 39 -66 42 -98 10z"/>
<path d="M11312 5517 c-31 -33 -59 -103 -71 -177 -12 -70 -15 -752 -5 -886 l7
-81 115 -12 c63 -6 118 -9 121 -5 3 3 6 231 6 507 0 451 -2 508 -18 559 -33
108 -102 151 -155 95z"/>
<path d="M3550 5526 c0 -2 18 -6 39 -8 22 -2 37 0 35 4 -5 8 -74 11 -74 4z"/>
<path d="M10123 5523 c9 -2 25 -2 35 0 9 3 1 5 -18 5 -19 0 -27 -2 -17 -5z"/>
<path d="M4397 5475 c16 -46 39 -59 49 -27 3 9 9 24 14 34 7 13 3 17 -18 23
-15 3 -34 8 -43 11 -15 4 -15 1 -2 -41z"/>
<path d="M9289 5508 l-36 -9 16 -35 c20 -44 39 -40 57 11 7 22 14 41 14 43 0
3 -10 1 -51 -10z"/>
<path d="M2656 5460 c-48 -58 -50 -73 -54 -589 l-3 -484 38 6 c21 3 72 9 115
13 l76 7 7 91 c4 50 5 255 3 456 -3 351 -4 367 -26 421 -44 110 -104 140 -156
79z"/>
<path d="M10950 5460 c-16 -17 -37 -54 -47 -83 -16 -47 -18 -93 -18 -507 l0
-455 65 -7 c36 -4 89 -10 118 -13 l53 -7 -3 479 c-3 340 -7 488 -16 514 -35
106 -97 138 -152 79z"/>
<path d="M3692 5447 c-39 -40 -40 -47 -4 -47 18 0 38 10 52 25 l24 26 28 -53
c34 -66 35 -59 4 18 -30 74 -55 81 -104 31z"/>
<path d="M4530 5476 c0 -12 31 -76 40 -81 5 -3 15 7 22 22 7 15 17 31 22 35 5
3 -8 11 -30 17 -42 12 -54 13 -54 7z"/>
<path d="M9139 5467 c-25 -11 -26 -13 -13 -44 17 -40 31 -42 44 -5 6 15 15 35
20 45 8 13 7 17 -7 17 -10 -1 -30 -6 -44 -13z"/>
<path d="M9926 5415 c-34 -86 -32 -94 5 -21 l30 58 28 -26 c16 -15 39 -26 55
-26 l27 0 -32 40 c-24 29 -40 40 -60 40 -24 0 -30 -7 -53 -65z"/>
<path d="M12541 5445 c-22 -29 -29 -55 -45 -175 l-11 -85 -34 3 c-21 2 -37 -1
-42 -10 -13 -20 -10 -137 5 -203 8 -33 13 -62 10 -66 -2 -4 -15 -6 -29 -6 -39
0 -56 -30 -52 -88 4 -41 10 -54 38 -77 l33 -28 -26 0 c-74 0 -77 -80 -4 -142
25 -21 29 -29 19 -39 -7 -7 -13 -32 -13 -55 0 -22 -5 -55 -11 -73 -13 -37 -5
-81 15 -81 17 0 35 43 97 230 26 80 48 141 49 137 0 -16 -50 -203 -75 -276
-29 -86 -28 -81 -15 -81 12 0 110 131 158 210 28 48 31 56 17 66 -13 10 -9 17
29 48 104 85 146 146 146 212 l0 37 -40 -6 c-22 -3 -40 -1 -40 4 0 5 14 38 31
72 71 139 88 243 49 285 -25 27 -28 27 -55 2 l-22 -20 -17 62 c-40 145 -113
208 -165 143z m6 -727 c-3 -8 -6 -5 -6 6 -1 11 2 17 5 13 3 -3 4 -12 1 -19z"/>
<path d="M3608 5453 c7 -3 16 -2 19 1 4 3 -2 6 -13 5 -11 0 -14 -3 -6 -6z"/>
<path d="M10098 5453 c7 -3 16 -2 19 1 4 3 -2 6 -13 5 -11 0 -14 -3 -6 -6z"/>
<path d="M3864 5418 l-27 -33 22 -3 c14 -2 33 6 46 18 l24 22 26 -48 c26 -49
26 -46 -2 34 -19 53 -49 57 -89 10z"/>
<path d="M6800 5390 l0 -60 65 0 65 0 0 60 0 60 -65 0 -65 0 0 -60z"/>
<path d="M9770 5404 c-26 -59 -25 -70 1 -20 l21 38 22 -21 c12 -12 35 -21 51
-21 l29 0 -34 35 c-46 48 -66 45 -90 -11z"/>
<path d="M2987 5422 c-9 -10 -24 -36 -34 -57 -16 -36 -18 -83 -21 -489 l-3
-449 63 7 c35 4 85 9 111 13 l48 6 -3 426 c-3 420 -3 427 -26 476 -12 27 -30
57 -39 67 -21 23 -75 23 -96 0z"/>
<path d="M4691 5401 c11 -23 24 -41 29 -41 11 0 41 58 32 64 -4 2 -24 7 -44
11 l-37 7 20 -41z"/>
<path d="M8995 5433 c-23 -6 -45 -23 -28 -23 6 0 14 -11 17 -25 8 -33 34 -32
42 3 4 15 11 33 17 40 10 13 -7 15 -48 5z"/>
<path d="M10626 5410 c-51 -62 -59 -110 -64 -425 -2 -159 -1 -345 3 -411 l7
-122 46 -5 c26 -4 75 -9 110 -13 l63 -7 -3 444 c-4 466 -5 476 -50 542 -28 39
-77 38 -112 -3z"/>
<path d="M13243 5418 c-28 -31 -44 -66 -88 -188 -20 -58 -41 -109 -45 -114 -5
-5 -14 10 -20 33 -6 23 -18 45 -26 48 -42 16 -93 -101 -95 -212 0 -73 -13
-135 -22 -112 -12 30 -27 10 -84 -112 -58 -123 -76 -171 -64 -171 7 0 112 87
253 209 40 34 0 -9 -90 -98 -133 -131 -162 -164 -157 -181 8 -24 42 -27 71 -5
10 8 32 15 47 15 20 0 30 6 34 20 8 30 20 24 42 -18 22 -43 59 -67 90 -57 18
5 21 14 21 63 l0 57 26 -32 c21 -27 32 -33 65 -33 36 0 41 3 55 35 10 25 13
51 8 84 -7 54 -8 54 72 66 53 8 99 37 124 77 24 39 25 73 5 112 -22 41 -20 50
29 116 93 127 126 242 93 323 -28 66 -95 72 -194 16 l-53 -29 0 43 c0 24 -5
48 -12 55 -19 19 -63 14 -85 -10z"/>
<path d="M6503 5385 c0 -22 2 -30 4 -17 2 12 2 30 0 40 -3 9 -5 -1 -4 -23z"/>
<path d="M3267 5398 c-9 -7 -24 -31 -34 -53 -16 -36 -18 -83 -21 -464 l-3
-423 58 6 c32 4 71 9 86 12 l28 6 -3 406 c-3 392 -4 409 -25 454 -11 25 -30
51 -41 57 -26 14 -25 14 -45 -1z"/>
<path d="M3734 5395 c-19 -14 -19 -14 1 -15 11 0 25 -10 30 -22 6 -12 16 -24
23 -26 9 -3 7 9 -7 37 -12 23 -23 41 -24 41 -2 0 -12 -7 -23 -15z"/>
<path d="M4037 5382 c-15 -15 -27 -31 -27 -35 0 -15 48 -6 65 13 25 28 32 26
54 -17 26 -49 26 -37 1 21 -23 55 -52 61 -93 18z"/>
<path d="M4820 5405 c0 -17 33 -75 44 -75 11 0 41 48 34 55 -5 5 -78 24 -78
20z"/>
<path d="M7212 5390 c0 -14 2 -19 5 -12 2 6 2 18 0 25 -3 6 -5 1 -5 -13z"/>
<path d="M8860 5397 c-19 -6 -36 -11 -37 -12 -8 -5 24 -55 34 -55 11 0 48 70
41 75 -2 1 -19 -3 -38 -8z"/>
<path d="M9596 5377 c-24 -59 -27 -83 -5 -42 12 22 23 42 25 44 1 2 15 -6 30
-18 24 -19 64 -29 64 -16 0 3 -10 19 -22 35 -32 43 -73 41 -92 -3z"/>
<path d="M9944 5374 c-18 -44 -12 -55 11 -20 10 14 24 26 32 26 13 0 13 3 3
15 -19 23 -30 18 -46 -21z"/>
<path d="M10392 5389 c-54 -57 -70 -253 -57 -671 6 -207 9 -238 24 -242 9 -2
47 -7 84 -11 l68 -7 -4 419 c-3 437 -6 467 -49 513 -24 25 -42 25 -66 -1z"/>
<path d="M3568 5393 c12 -2 32 -2 45 0 12 2 2 4 -23 4 -25 0 -35 -2 -22 -4z"/>
<path d="M10108 5393 c12 -2 32 -2 45 0 12 2 2 4 -23 4 -25 0 -35 -2 -22 -4z"/>
<path d="M3905 5375 c-17 -12 -17 -14 -4 -15 9 0 23 -10 32 -22 22 -33 28 -19
8 20 -15 30 -18 31 -36 17z"/>
<path d="M9781 5359 c-13 -39 -13 -39 -2 -39 5 0 13 9 16 20 3 11 13 20 22 20
13 0 13 3 3 15 -18 22 -27 19 -39 -16z"/>
<path d="M4230 5340 l-21 -30 24 0 c14 0 30 7 37 15 18 21 27 19 44 -12 20
-36 20 -25 1 21 -20 47 -54 49 -85 6z"/>
<path d="M4973 5335 c12 -42 20 -44 36 -9 14 31 14 29 -21 38 -26 6 -26 6 -15
-29z"/>
<path d="M8727 5363 c-14 -4 -17 -11 -13 -26 3 -12 6 -25 6 -29 0 -20 19 -5
29 23 15 44 17 42 -22 32z"/>
<path d="M9407 5328 c-19 -48 -16 -64 3 -18 14 35 18 36 48 14 12 -8 29 -14
38 -12 14 3 13 7 -6 31 -33 41 -63 36 -83 -15z"/>
<path d="M4075 5340 c-3 -5 1 -10 9 -10 9 0 16 -6 16 -14 0 -7 7 -19 15 -26
18 -15 18 -12 4 29 -11 30 -32 41 -44 21z"/>
<path d="M9605 5319 c-22 -41 -15 -45 17 -9 24 27 26 40 7 40 -5 0 -16 -14
-24 -31z"/>
<path d="M3558 5333 c6 -2 18 -2 25 0 6 3 1 5 -13 5 -14 0 -19 -2 -12 -5z"/>
<path d="M4392 5317 c-12 -13 -22 -26 -22 -30 0 -15 35 -6 56 14 l22 21 22
-38 c20 -37 20 -32 -2 29 -13 34 -46 36 -76 4z"/>
<path d="M6758 5327 c6 -6 12 -28 15 -47 3 -30 4 -28 5 13 2 37 -1 47 -14 47
-12 0 -14 -3 -6 -13z"/>
<path d="M6947 5333 c-10 -10 -8 -83 2 -83 5 0 11 20 13 45 3 43 -1 53 -15 38z"/>
<path d="M9249 5295 c-18 -49 -9 -53 11 -5 l12 30 25 -20 c26 -20 53 -27 53
-12 -1 18 -41 52 -62 52 -18 0 -26 -9 -39 -45z"/>
<path d="M10133 5333 c9 -2 23 -2 30 0 6 3 -1 5 -18 5 -16 0 -22 -2 -12 -5z"/>
<path d="M5206 5294 c38 -42 71 -42 94 0 7 14 20 27 29 29 9 3 -23 5 -70 6
l-87 1 34 -36z"/>
<path d="M5442 5322 c9 -4 26 -19 38 -34 28 -37 47 -35 86 7 l32 35 -87 -1
c-47 0 -78 -3 -69 -7z"/>
<path d="M5734 5295 c18 -19 39 -35 48 -35 8 0 31 16 51 35 l36 35 -83 0 -84
0 32 -35z"/>
<path d="M5972 5322 c9 -4 26 -19 38 -34 29 -37 50 -35 87 7 l31 35 -86 -1
c-48 0 -79 -3 -70 -7z"/>
<path d="M7626 5294 c38 -42 71 -42 94 0 7 14 20 27 29 29 9 3 -23 5 -70 6
l-87 1 34 -36z"/>
<path d="M7862 5322 c9 -4 26 -19 38 -34 28 -37 47 -35 86 7 l32 35 -87 -1
c-47 0 -78 -3 -69 -7z"/>
<path d="M8154 5295 c18 -19 39 -35 48 -35 8 0 31 16 51 35 l36 35 -83 0 -84
0 32 -35z"/>
<path d="M8423 5295 c17 -19 38 -35 47 -35 9 0 30 16 47 35 l31 35 -78 0 -78
0 31 -35z"/>
<path d="M4277 5314 c-4 -4 3 -20 14 -36 27 -37 36 -30 14 11 -17 33 -18 34
-28 25z"/>
<path d="M9419 5293 c-13 -34 -8 -37 17 -8 17 19 19 25 7 29 -8 4 -17 -4 -24
-21z"/>
<path d="M4537 5285 c-17 -24 -17 -25 0 -25 10 0 28 7 40 15 20 14 23 14 33
-2 11 -17 11 -17 6 0 -3 10 -6 23 -6 28 0 20 -55 8 -73 -16z"/>
<path d="M9105 5273 c-8 -20 -14 -38 -11 -40 2 -2 9 10 16 27 14 34 22 37 40
15 7 -8 21 -15 31 -15 18 0 19 1 3 25 -25 38 -60 33 -79 -12z"/>
<path d="M4428 5284 c-4 -3 3 -15 14 -26 24 -24 34 -18 18 11 -11 21 -22 26
-32 15z"/>
<path d="M9261 5264 c-14 -32 -7 -44 9 -15 6 12 18 21 28 21 15 0 15 2 2 10
-22 14 -26 13 -39 -16z"/>
<path d="M3678 4891 l-3 -392 75 7 c69 6 107 14 67 14 -16 0 -17 32 -17 375
l0 375 -22 0 c-13 0 -40 3 -60 6 l-38 7 -2 -392z"/>
<path d="M4685 5260 c-25 -28 -11 -38 25 -17 27 17 29 17 39 0 14 -23 14 -7 1
18 -14 25 -42 24 -65 -1z"/>
<path d="M8965 5244 c-19 -46 -19 -56 1 -24 l15 25 -6 -30 c-7 -30 -7 -30 13
-10 18 18 19 21 4 32 -8 7 -13 16 -9 20 4 3 15 -1 25 -10 20 -18 42 -22 42 -9
0 14 -35 42 -53 42 -10 0 -23 -15 -32 -36z"/>
<path d="M9965 5271 l-40 -6 -3 -372 c-2 -339 -4 -373 -19 -373 -40 0 -2 -8
67 -14 l75 -7 -3 390 c-2 363 -4 391 -20 390 -9 -1 -35 -5 -57 -8z"/>
<path d="M3568 5263 c12 -2 32 -2 45 0 12 2 2 4 -23 4 -25 0 -35 -2 -22 -4z"/>
<path d="M4577 5263 c-2 -5 6 -19 19 -33 l24 -25 -12 33 c-12 31 -22 40 -31
25z"/>
<path d="M9115 5240 c-9 -18 -11 -30 -5 -30 6 0 14 8 17 18 4 9 11 20 16 23 5
4 5 9 -2 13 -5 4 -17 -7 -26 -24z"/>
<path d="M10108 5263 c12 -2 32 -2 45 0 12 2 2 4 -23 4 -25 0 -35 -2 -22 -4z"/>
<path d="M3848 4891 l-3 -371 25 1 c47 1 295 36 268 38 l-28 1 0 335 0 335
-27 0 c-16 0 -38 3 -50 6 l-23 6 -2 -348 -3 -349 -27 -3 -28 -3 0 355 0 356
-27 0 c-16 0 -38 3 -50 6 l-23 6 -2 -371z"/>
<path d="M4835 5238 c-15 -22 -14 -23 11 -30 14 -4 32 -15 40 -25 16 -21 18
-10 3 18 -6 11 -15 17 -22 12 -7 -4 -6 1 2 11 14 16 15 16 27 -6 17 -29 18
-18 2 17 -14 31 -42 32 -63 3z"/>
<path d="M8817 5220 c-8 -22 -11 -38 -6 -35 5 4 9 1 9 -6 0 -7 8 -5 19 7 18
19 19 40 0 29 -5 -4 -9 -2 -9 4 0 18 17 21 30 6 13 -16 40 -20 40 -7 0 14 -35
42 -52 42 -8 0 -22 -18 -31 -40z"/>
<path d="M9808 5253 l-38 -4 0 -355 0 -354 -22 -1 c-25 -2 61 -17 102 -18 l25
-1 -3 370 c-2 285 -5 370 -15 368 -6 -1 -29 -3 -49 -5z"/>
<path d="M4718 5234 c-6 -5 27 -44 37 -44 2 0 -1 11 -7 25 -11 25 -20 30 -30
19z"/>
<path d="M9648 5233 l-38 -4 0 -335 0 -334 -27 -1 c-33 -2 55 -17 105 -18 l32
-1 0 350 c0 327 -1 350 -17 348 -10 -1 -35 -3 -55 -5z"/>
<path d="M4965 5210 c-18 -19 -17 -20 3 -20 11 0 28 -7 36 -16 12 -12 16 -12
16 -2 0 10 3 9 11 -2 9 -12 9 -11 4 5 -4 11 -10 28 -12 38 -7 23 -36 22 -58
-3z m55 -23 c0 -4 -6 -2 -14 5 -8 7 -12 17 -9 22 5 8 23 -12 23 -27z"/>
<path d="M8706 5221 c-4 -5 -3 -17 1 -27 4 -12 3 -15 -5 -10 -7 4 -10 2 -6 -7
4 -12 10 -11 38 2 27 13 32 19 24 34 -9 18 -43 23 -52 8z m24 -16 c11 -13 10
-14 -4 -9 -9 3 -16 10 -16 15 0 13 6 11 20 -6z"/>
<path d="M3568 5203 c12 -2 30 -2 40 0 9 3 -1 5 -23 4 -22 0 -30 -2 -17 -4z"/>
<path d="M4210 4890 c0 -292 -1 -320 -17 -320 -9 0 -14 -3 -11 -6 4 -3 37 -2
75 1 l68 7 -3 313 -3 313 -31 6 c-17 3 -41 6 -54 6 l-24 0 0 -320z"/>
<path d="M5200 5179 c-64 -33 -57 -39 8 -8 l44 22 45 -22 c25 -12 48 -20 50
-17 3 3 -17 16 -44 29 l-48 25 -55 -29z"/>
<path d="M5467 5184 c-61 -32 -56 -43 6 -13 l45 22 44 -22 c65 -31 71 -25 9 9
-30 17 -55 30 -55 30 -1 -1 -23 -12 -49 -26z"/>
<path d="M5736 5183 c-59 -30 -56 -41 4 -12 l44 21 44 -21 c24 -12 47 -20 49
-17 3 3 -17 16 -44 29 l-48 25 -49 -25z"/>
<path d="M5995 5180 c-59 -35 -54 -39 9 -9 l44 22 44 -22 c24 -11 49 -21 54
-21 9 0 -86 60 -96 60 -3 0 -27 -14 -55 -30z"/>
<path d="M7620 5179 c-64 -32 -55 -39 10 -8 l44 21 44 -21 c24 -12 47 -20 49
-17 3 3 -17 16 -44 29 l-48 25 -55 -29z"/>
<path d="M7886 5183 c-26 -13 -45 -27 -42 -30 3 -3 25 4 49 17 l44 23 47 -22
c26 -13 49 -21 51 -19 3 2 -19 16 -48 30 l-53 26 -48 -25z"/>
<path d="M8156 5183 c-59 -30 -56 -41 4 -12 l44 21 44 -21 c24 -12 47 -20 49
-17 3 3 -17 16 -44 29 l-48 25 -49 -25z"/>
<path d="M8417 5182 c-26 -14 -45 -28 -42 -30 2 -3 25 6 50 19 l45 24 45 -24
c25 -13 47 -22 50 -19 2 2 -19 16 -49 30 l-52 26 -47 -26z"/>
<path d="M9428 5203 l-27 -4 -3 -315 -3 -314 26 0 c14 0 48 -2 75 -5 27 -3 43
-3 37 1 -10 4 -13 79 -13 325 l0 319 -32 -1 c-18 -1 -45 -4 -60 -6z"/>
<path d="M10123 5203 c9 -2 25 -2 35 0 9 3 1 5 -18 5 -19 0 -27 -2 -17 -5z"/>
<path d="M4370 4891 c0 -230 -3 -301 -12 -305 -7 -4 9 -4 36 -1 27 3 63 6 80
6 17 1 23 3 14 6 -17 4 -18 27 -18 292 l0 289 -31 6 c-75 15 -69 40 -69 -293z"/>
<path d="M9273 5183 l-23 -4 0 -289 c0 -221 -3 -290 -12 -293 -7 -3 -1 -6 13
-6 14 -1 48 -3 75 -6 27 -3 43 -3 37 1 -10 4 -13 75 -13 305 l0 299 -27 -1
c-16 -1 -38 -4 -50 -6z"/>
<path d="M4528 4884 l-3 -285 65 7 c68 7 92 14 47 14 l-27 0 0 269 c0 292 2
281 -56 281 l-23 0 -3 -286z"/>
<path d="M9123 5163 c-10 -3 -13 -68 -13 -274 l0 -270 -27 3 -28 3 -3 263 -2
263 -38 -3 -37 -3 -5 -258 c-5 -252 -5 -258 15 -262 26 -5 184 -25 202 -25 10
0 13 53 13 285 l0 285 -32 -1 c-18 0 -39 -3 -45 -6z"/>
<path d="M6553 5145 c-18 -8 -34 -15 -35 -17 -1 -2 -4 -105 -7 -231 l-6 -227
81 0 c80 0 81 0 77 24 -3 13 0 27 6 30 7 5 11 70 11 195 0 182 -1 188 -22 209
-31 28 -67 34 -105 17z"/>
<path d="M6820 5147 c-46 -23 -50 -48 -46 -237 2 -96 7 -190 11 -207 l7 -33
68 0 68 0 7 33 c4 17 10 107 12 199 4 186 -5 230 -52 248 -34 13 -45 12 -75
-3z"/>
<path d="M7084 5146 c-17 -8 -34 -21 -38 -31 -11 -30 -7 -383 5 -391 6 -3 9
-17 6 -30 -4 -24 -3 -24 77 -24 l81 0 -5 220 c-5 203 -7 221 -25 239 -28 27
-64 33 -101 17z"/>
<path d="M4670 4885 l0 -266 43 3 42 3 0 260 0 260 -42 3 -43 3 0 -266z"/>
<path d="M3568 5133 c12 -2 32 -2 45 0 12 2 2 4 -23 4 -25 0 -35 -2 -22 -4z"/>
<path d="M4810 4889 c0 -249 0 -249 -22 -249 -12 0 -19 -2 -16 -5 3 -3 35 -3
72 1 l66 7 0 239 c0 182 -3 240 -12 242 -7 3 -30 7 -50 10 l-38 5 0 -250z"/>
<path d="M8863 5132 l-42 -3 -3 -242 c-2 -133 -3 -243 -3 -243 0 -1 32 -4 70
-7 39 -3 60 -3 48 0 -23 4 -23 5 -25 251 l-3 247 -42 -3z"/>
<path d="M10108 5133 c12 -2 32 -2 45 0 12 2 2 4 -23 4 -25 0 -35 -2 -22 -4z"/>
<path d="M4960 4892 c0 -175 -3 -232 -12 -235 -7 -3 -1 -6 14 -6 60 -2 58 -9
58 235 0 187 -2 224 -14 224 -8 0 -21 3 -30 6 -14 5 -16 -18 -16 -224z"/>
<path d="M3568 5073 c12 -2 32 -2 45 0 12 2 2 4 -23 4 -25 0 -35 -2 -22 -4z"/>
<path d="M10108 5073 c12 -2 32 -2 45 0 12 2 2 4 -23 4 -25 0 -35 -2 -22 -4z"/>
<path d="M5208 4945 l3 -125 44 0 44 0 3 125 3 125 -50 0 -50 0 3 -125z"/>
<path d="M5470 4945 l0 -125 50 0 50 0 0 125 0 125 -50 0 -50 0 0 -125z"/>
<path d="M5738 4945 l3 -125 44 0 44 0 3 125 3 125 -50 0 -50 0 3 -125z"/>
<path d="M6000 4945 l0 -125 50 0 50 0 0 125 0 125 -50 0 -50 0 0 -125z"/>
<path d="M7628 4945 l3 -125 44 0 44 0 3 125 3 125 -50 0 -50 0 3 -125z"/>
<path d="M7890 4945 l0 -125 50 0 50 0 0 125 0 125 -50 0 -50 0 0 -125z"/>
<path d="M8158 4945 l3 -125 44 0 44 0 3 125 3 125 -50 0 -50 0 3 -125z"/>
<path d="M8420 4945 l0 -125 50 0 50 0 0 125 0 125 -50 0 -50 0 0 -125z"/>
<path d="M255 4949 c18 -191 79 -417 150 -560 93 -185 212 -303 388 -384 114
-53 246 -81 262 -56 3 5 -27 27 -67 48 -91 47 -213 166 -287 278 -48 73 -246
453 -224 430 5 -5 56 -91 112 -190 57 -99 129 -215 160 -259 71 -100 190 -212
269 -254 l61 -33 6 33 c7 36 -14 171 -44 290 -28 110 -81 245 -132 334 -56
100 -179 226 -274 282 -87 51 -234 101 -321 109 l-66 6 7 -74z"/>
<path d="M3608 5003 c7 -3 16 -2 19 1 4 3 -2 6 -13 5 -11 0 -14 -3 -6 -6z"/>
<path d="M10103 5003 c9 -2 23 -2 30 0 6 3 -1 5 -18 5 -16 0 -22 -2 -12 -5z"/>
<path d="M3568 4943 c12 -2 32 -2 45 0 12 2 2 4 -23 4 -25 0 -35 -2 -22 -4z"/>
<path d="M10108 4943 c12 -2 32 -2 45 0 12 2 2 4 -23 4 -25 0 -35 -2 -22 -4z"/>
<path d="M3568 4813 c12 -2 32 -2 45 0 12 2 2 4 -23 4 -25 0 -35 -2 -22 -4z"/>
<path d="M10108 4813 c12 -2 32 -2 45 0 12 2 2 4 -23 4 -25 0 -35 -2 -22 -4z"/>
<path d="M5204 4755 c18 -19 40 -35 50 -35 9 0 32 16 50 35 l33 35 -82 0 -83
0 32 -35z"/>
<path d="M5466 4755 c39 -42 65 -44 94 -7 12 15 29 30 38 34 9 4 -24 7 -74 7
l-91 1 33 -35z"/>
<path d="M5734 4755 c18 -19 41 -35 51 -35 10 0 33 16 51 35 l32 35 -83 0 -83
0 32 -35z"/>
<path d="M5997 4755 c43 -42 65 -44 93 -7 12 15 29 30 38 34 9 4 -24 7 -75 7
l-92 1 36 -35z"/>
<path d="M7624 4755 c18 -19 40 -35 50 -35 9 0 32 16 50 35 l33 35 -82 0 -83
0 32 -35z"/>
<path d="M7886 4755 c39 -42 65 -44 94 -7 12 15 29 30 38 34 9 4 -24 7 -74 7
l-91 1 33 -35z"/>
<path d="M8154 4755 c18 -19 41 -35 51 -35 10 0 33 16 51 35 l32 35 -83 0 -83
0 32 -35z"/>
<path d="M8397 4780 c12 -5 24 -18 28 -29 3 -12 18 -24 33 -28 21 -5 31 0 51
24 14 17 33 33 41 36 8 3 -28 5 -80 6 -64 0 -88 -3 -73 -9z"/>
<path d="M1303 4705 c-6 -11 -22 -56 -36 -101 -77 -243 -86 -517 -27 -749 43
-166 192 -420 243 -413 37 6 46 16 66 86 98 329 87 628 -34 890 -36 76 -120
209 -173 272 -27 32 -30 33 -39 15z m197 -774 c23 -120 29 -316 13 -415 -6
-36 -8 0 -9 125 -1 199 -13 278 -80 522 -24 87 -44 162 -43 165 3 23 101 -303
119 -397z"/>
<path d="M3568 4683 c12 -2 32 -2 45 0 12 2 2 4 -23 4 -25 0 -35 -2 -22 -4z"/>
<path d="M10108 4683 c12 -2 32 -2 45 0 12 2 2 4 -23 4 -25 0 -35 -2 -22 -4z"/>
<path d="M3568 4623 c12 -2 32 -2 45 0 12 2 2 4 -23 4 -25 0 -35 -2 -22 -4z"/>
<path d="M10108 4623 c12 -2 32 -2 45 0 12 2 2 4 -23 4 -25 0 -35 -2 -22 -4z"/>
<path d="M3568 4553 c12 -2 30 -2 40 0 9 3 -1 5 -23 4 -22 0 -30 -2 -17 -4z"/>
<path d="M10118 4553 c12 -2 30 -2 40 0 9 3 -1 5 -23 4 -22 0 -30 -2 -17 -4z"/>
<path d="M3578 4493 c18 -2 45 -2 60 0 15 2 0 4 -33 4 -33 0 -45 -2 -27 -4z"/>
<path d="M10088 4493 c18 -2 45 -2 60 0 15 2 0 4 -33 4 -33 0 -45 -2 -27 -4z"/>
<path d="M12699 4128 c-29 -25 -40 -47 -84 -168 -25 -68 -47 -125 -49 -128 -3
-2 -14 19 -27 47 -14 34 -27 51 -40 51 -43 0 -78 -92 -80 -208 0 -31 -4 -75
-8 -97 -6 -35 -8 -37 -15 -17 -4 12 -11 22 -16 22 -10 0 -127 -218 -136 -254
-3 -14 -3 -26 1 -26 8 0 174 109 305 199 41 29 64 42 50 30 -47 -41 -216 -174
-283 -221 -73 -52 -85 -80 -43 -99 17 -8 29 -8 44 0 11 6 37 11 57 11 28 0 37
5 44 23 8 21 10 19 37 -25 34 -56 85 -89 112 -72 13 9 16 23 14 65 l-3 54 25
-36 c28 -40 43 -49 87 -49 42 0 61 35 57 107 l-3 58 71 6 c80 7 103 17 133 55
25 32 28 101 6 130 -23 31 -18 49 37 121 60 79 84 129 93 196 9 58 -14 128
-50 151 -34 22 -120 20 -174 -4 -24 -11 -47 -20 -52 -20 -5 0 -9 18 -9 39 0
23 -7 46 -16 55 -19 19 -64 21 -85 4z"/>
<path d="M12058 4069 c-27 -15 -64 -86 -88 -167 -24 -79 -32 -89 -50 -67 -34
41 -80 -19 -80 -104 0 -21 -3 -66 -6 -100 -7 -62 -7 -62 -35 -56 -44 10 -69
-22 -69 -87 1 -29 7 -64 15 -78 20 -35 19 -37 -16 -32 -20 3 -34 0 -40 -9 -17
-27 -9 -92 16 -135 25 -42 25 -43 6 -53 -12 -7 -22 -26 -26 -51 -4 -21 -15
-50 -26 -64 -10 -13 -19 -37 -19 -53 0 -68 26 -52 98 60 33 51 83 132 111 182
28 49 51 85 51 80 0 -14 -114 -226 -163 -302 -26 -40 -43 -73 -38 -73 19 0
137 85 194 141 56 55 60 61 45 73 -16 11 -8 17 66 50 46 21 97 52 114 69 55
57 65 127 19 127 -45 0 -47 14 -10 60 20 25 58 78 84 119 42 63 49 81 49 123
0 78 -23 106 -60 73 -16 -14 -18 -9 -24 67 -9 109 -23 162 -52 193 -25 27 -39
30 -66 14z"/>
<path d="M1023 3434 c-22 -9 42 -205 112 -344 147 -294 374 -457 661 -477 84
-6 139 1 130 16 -3 5 -23 11 -44 15 -63 10 -193 81 -273 149 -41 35 -109 104
-150 154 -82 98 -202 253 -196 253 3 0 52 -55 109 -123 137 -160 232 -255 311
-311 71 -51 163 -99 220 -114 l37 -10 0 32 c0 40 -35 145 -84 250 -79 173
-209 328 -339 405 -78 46 -206 88 -307 100 -87 11 -166 13 -187 5z"/>
<path d="M1964 3364 c-13 -50 5 -325 26 -419 55 -243 149 -425 286 -556 103
-97 184 -143 184 -103 0 8 4 13 9 10 15 -10 21 23 21 122 0 319 -117 626 -313
825 -57 57 -178 147 -198 147 -5 0 -12 -12 -15 -26z m255 -427 c119 -177 210
-385 225 -512 6 -45 4 -41 -18 31 -55 179 -112 304 -222 481 -35 56 -62 103
-59 103 2 0 36 -46 74 -103z m238 -604 c-3 -10 -5 -4 -5 12 0 17 2 24 5 18 2
-7 2 -21 0 -30z"/>
<path d="M6317 3230 c-108 -19 -184 -94 -194 -191 -7 -73 10 -128 52 -170 l35
-35 -48 -50 c-90 -93 -96 -219 -15 -314 79 -92 225 -121 373 -74 102 32 160
111 160 217 0 52 -5 71 -29 108 -16 25 -45 56 -65 68 -20 13 -36 24 -36 25 0
1 20 23 43 48 85 88 82 224 -5 305 -55 52 -174 79 -271 63z m174 -158 c43 -48
40 -99 -7 -152 -46 -51 -61 -55 -120 -30 -89 39 -123 87 -103 147 17 53 60 75
138 70 57 -3 67 -7 92 -35z m-67 -335 c40 -19 82 -46 94 -62 60 -77 -11 -175
-128 -175 -115 0 -188 96 -144 187 17 34 73 83 96 83 5 0 42 -15 82 -33z"/>
<path d="M7773 3230 c-85 -18 -160 -74 -198 -150 -26 -51 -31 -145 -11 -214
45 -154 233 -222 388 -142 l51 27 -6 -51 c-8 -70 -39 -133 -78 -161 -49 -34
-160 -39 -246 -10 -34 12 -65 21 -68 21 -3 0 -5 -31 -5 -69 l0 -69 33 -11 c69
-22 173 -32 235 -22 201 32 281 174 270 479 -6 161 -28 223 -102 297 -67 67
-166 95 -263 75z m146 -147 c61 -44 94 -179 54 -215 -62 -54 -155 -67 -215
-30 -38 23 -68 81 -68 128 0 57 50 122 105 137 34 10 97 -1 124 -20z"/>
<path d="M5653 3167 l-103 -52 0 -72 0 -73 90 45 c49 25 92 45 95 45 3 0 5
-151 5 -335 l0 -335 70 0 70 0 0 415 0 415 -62 -1 c-55 0 -76 -7 -165 -52z"/>
<path d="M6887 3083 c-4 -75 -7 -166 -7 -202 l1 -66 45 -33 c45 -34 45 -34 85
-18 49 20 129 21 174 2 96 -40 98 -187 4 -238 -62 -33 -190 -18 -291 33 l-38
19 0 -73 0 -74 57 -22 c203 -78 399 -28 470 118 25 53 29 161 8 218 -40 105
-130 163 -252 163 -39 0 -84 -5 -99 -10 -15 -6 -29 -8 -32 -6 -2 3 -1 48 3
101 l7 95 179 0 179 0 0 65 0 65 -243 0 -244 0 -6 -137z"/>
<path d="M11143 3028 c-26 -29 -55 -88 -78 -158 -10 -30 -19 -57 -21 -59 -2
-3 -15 6 -28 18 -14 13 -29 20 -35 17 -13 -8 -28 -90 -36 -193 -4 -46 -9 -83
-11 -83 -2 0 -13 5 -23 12 -57 35 -94 -77 -56 -168 14 -34 14 -36 -3 -29 -44
18 -51 17 -58 -9 -8 -34 0 -114 16 -152 12 -28 11 -33 -8 -52 -12 -12 -22 -30
-22 -40 0 -9 -11 -34 -25 -54 -24 -36 -35 -108 -16 -108 17 0 110 110 168 199
32 48 64 96 71 107 7 10 -4 -14 -25 -55 -20 -41 -68 -117 -105 -170 -77 -109
-73 -121 19 -71 114 61 188 127 155 138 -27 9 -8 22 47 33 106 20 181 83 181
151 0 24 -6 32 -35 44 -19 8 -35 16 -35 19 0 3 27 34 59 70 67 73 121 172 121
219 0 17 -6 42 -13 56 -12 24 -23 27 -56 19 -11 -3 -15 14 -17 82 -6 190 -65
288 -131 217z"/>
<path d="M11910 2908 c-20 -14 -58 -64 -96 -128 -35 -57 -67 -106 -72 -108 -5
-1 -13 17 -18 40 -7 34 -14 44 -32 46 -48 7 -88 -55 -122 -189 -24 -93 -39
-128 -40 -91 0 12 -5 22 -11 22 -23 0 -208 -214 -196 -226 9 -10 144 40 330
120 20 9 37 14 37 11 0 -8 -193 -102 -278 -136 -93 -37 -108 -49 -93 -77 9
-17 20 -20 85 -19 59 0 76 4 81 16 6 14 8 14 21 -3 8 -11 14 -27 14 -37 0 -9
10 -29 21 -43 44 -55 99 -51 99 7 0 51 15 64 30 27 16 -40 46 -60 87 -60 27 0
37 6 53 33 11 17 20 46 19 62 -2 58 -5 56 74 49 124 -11 197 37 197 130 0 19
-4 38 -10 41 -23 14 -7 45 47 91 75 63 99 90 125 139 29 54 31 144 4 174 -29
32 -85 43 -153 31 -106 -18 -98 -20 -95 28 6 70 -44 93 -108 50z"/>
<path d="M2970 2333 c0 -50 30 -226 51 -301 50 -179 131 -330 236 -442 84 -89
169 -148 267 -185 84 -32 112 -30 108 5 -2 20 -1 22 7 10 18 -26 13 96 -9 195
-85 397 -319 673 -627 740 -31 6 -33 5 -33 -22z m382 -418 c151 -166 250 -329
272 -446 4 -19 -7 -1 -23 39 -56 138 -142 263 -315 457 -111 124 -128 147 -77
100 24 -22 88 -89 143 -150z"/>
<path d="M10323 2298 c-12 -13 -35 -52 -53 -88 -34 -67 -34 -67 -66 -14 -22
38 -51 -14 -79 -143 -21 -95 -24 -101 -42 -77 -12 16 -19 17 -79 7 -79 -14
-111 -33 -131 -81 -18 -43 -11 -87 19 -119 23 -25 21 -26 -30 -23 -48 2 -72
-23 -72 -77 0 -38 5 -49 35 -76 41 -36 42 -40 15 -67 -12 -12 -20 -34 -20 -52
-1 -18 -7 -44 -15 -58 -17 -29 -20 -86 -5 -95 17 -11 38 13 75 84 50 94 131
200 163 213 15 6 42 27 61 47 l34 36 -35 -50 c-21 -31 -43 -51 -57 -53 -16 -3
-39 -29 -76 -85 -61 -95 -109 -187 -101 -195 3 -3 38 20 78 51 40 30 99 67
131 81 60 26 69 38 40 55 -13 7 11 9 79 8 88 -2 98 0 121 21 38 36 40 68 5
107 l-29 34 60 40 c77 52 112 99 118 155 8 64 -2 96 -30 96 -22 0 -22 2 -22
137 0 113 -3 144 -18 171 -21 38 -45 41 -74 10z"/>
<path d="M2111 2099 c-41 -5 -79 -13 -84 -18 -10 -10 19 -64 96 -180 105 -157
277 -305 422 -363 126 -51 198 -63 382 -63 116 0 176 4 183 12 15 14 -2 20
-117 37 -165 25 -312 101 -533 276 -58 45 -112 89 -120 98 -21 21 71 -41 160
-108 112 -85 233 -158 316 -191 62 -25 282 -89 307 -89 4 0 7 13 7 29 0 43
-108 199 -205 297 -174 176 -364 258 -625 268 -63 3 -148 1 -189 -5z"/>
<path d="M10885 1769 c-22 -12 -70 -43 -106 -70 -79 -59 -93 -61 -85 -16 8 42
-5 60 -42 59 -44 -1 -76 -26 -133 -104 -44 -61 -52 -68 -62 -53 -11 14 -16 14
-42 3 -50 -22 -84 -48 -105 -83 -30 -49 -25 -54 33 -34 57 19 233 35 207 19
-8 -5 -35 -10 -59 -10 -51 0 -147 -25 -175 -45 -11 -8 -16 -21 -13 -29 5 -13
21 -15 76 -13 39 2 73 6 77 10 4 4 29 -13 55 -38 32 -30 57 -45 75 -45 19 0
25 4 20 15 -7 20 -4 19 36 -13 61 -48 165 -95 221 -100 43 -3 57 0 80 18 24
19 28 29 25 63 l-3 41 91 31 c136 46 194 99 194 178 0 57 -65 100 -171 112
-82 10 -84 11 -65 40 21 32 20 40 -6 65 -28 26 -73 26 -123 -1z"/>
<path d="M9227 1560 c-38 -39 -73 -67 -78 -63 -4 4 -9 19 -11 33 -2 14 -11 26
-21 28 -25 5 -65 -42 -115 -137 -24 -44 -47 -81 -52 -81 -5 0 -12 9 -15 20 -6
18 -15 20 -101 20 -110 0 -143 -13 -168 -64 -21 -45 -20 -62 5 -102 23 -38 16
-42 -40 -23 -70 25 -124 -29 -102 -101 6 -20 20 -45 31 -55 26 -24 25 -38 -2
-50 -13 -6 -31 -28 -42 -50 -10 -22 -29 -53 -43 -69 -28 -34 -28 -79 1 -84 12
-3 41 18 85 61 104 102 208 177 245 177 19 0 51 13 84 35 68 46 67 37 -1 -15
-35 -26 -64 -40 -84 -40 -23 0 -53 -19 -125 -80 -95 -79 -170 -160 -148 -160
6 0 54 16 107 36 53 20 123 40 156 44 69 10 86 22 67 45 -18 21 2 20 68 -5 31
-12 76 -20 113 -20 50 0 64 4 84 25 31 30 32 62 4 91 -27 29 -19 40 40 58 145
43 222 120 204 207 -4 23 -11 29 -30 29 -20 0 -24 4 -20 18 59 179 72 276 41
320 -28 40 -59 29 -137 -48z"/>
<path d="M4245 1499 c4 -13 24 -64 45 -114 75 -176 160 -308 274 -420 117
-115 235 -179 388 -211 88 -19 173 -15 173 6 0 8 4 18 9 21 21 16 -62 199
-149 330 -119 179 -272 307 -444 370 -71 26 -105 33 -195 37 l-108 5 7 -24z
m370 -244 c167 -94 229 -138 314 -219 63 -61 129 -145 155 -196 8 -16 2 -9
-99 110 -94 110 -158 159 -427 324 -43 26 -78 50 -78 52 0 3 3 3 8 1 4 -3 61
-35 127 -72z"/>
<path d="M3510 1209 c-93 -10 -279 -54 -295 -70 -14 -14 137 -154 244 -228
141 -96 273 -154 416 -182 87 -17 306 -18 400 -1 145 26 210 54 153 65 -20 4
-19 4 5 6 67 3 15 72 -146 192 -238 178 -492 249 -777 218z m217 -242 c259
-111 305 -124 613 -166 l65 -8 -93 -2 c-175 -2 -358 51 -632 182 -63 31 -112
56 -108 56 3 1 73 -28 155 -62z"/>
<path d="M9872 1175 c-18 -8 -75 -39 -127 -70 -52 -30 -98 -55 -104 -55 -5 0
-9 21 -8 48 2 45 1 47 -27 50 -52 6 -77 -8 -167 -95 -59 -57 -89 -80 -89 -68
0 30 -76 11 -137 -36 -49 -36 -80 -75 -70 -85 2 -2 31 2 63 10 80 20 206 28
279 17 57 -8 55 -8 -46 -10 -58 0 -132 -6 -164 -12 -166 -31 -181 -98 -18 -80
l78 8 27 -32 c26 -30 83 -65 107 -65 6 0 11 10 11 21 0 19 3 18 38 -13 82 -75
235 -132 304 -115 39 10 68 44 68 81 0 43 10 50 100 70 216 47 328 173 231
260 -25 22 -141 56 -193 56 -37 0 -53 20 -28 35 26 16 29 43 9 69 -16 21 -29
26 -62 26 -23 -1 -57 -7 -75 -15z"/>
<path d="M7690 1134 c-14 -9 -39 -30 -57 -47 -33 -31 -53 -29 -53 4 0 11 -7
22 -16 26 -21 8 -67 -38 -110 -109 -38 -62 -49 -69 -59 -39 -6 19 -85 41 -147
41 -76 0 -121 -68 -87 -132 16 -29 4 -33 -41 -13 -40 18 -40 18 -65 -5 -33
-31 -33 -76 0 -120 26 -36 25 -50 -5 -50 -13 0 -27 -14 -39 -37 -10 -21 -28
-47 -40 -57 -24 -22 -28 -64 -7 -72 8 -3 46 20 86 51 99 76 190 126 217 119
12 -3 36 1 54 10 18 9 34 14 37 12 9 -9 -80 -47 -97 -41 -27 8 -264 -155 -248
-171 2 -3 36 2 73 12 38 9 105 19 149 23 68 5 80 9 77 23 -3 19 -7 20 81 -20
57 -26 114 -28 145 -6 25 17 29 56 7 74 -13 11 -21 40 -12 40 28 0 131 27 160
41 70 36 103 130 52 149 l-24 9 25 56 c33 71 51 175 38 212 -12 34 -56 42 -94
17z"/>
<path d="M5885 1021 c-48 -7 -48 -19 -3 -101 119 -213 261 -348 426 -406 89
-31 240 -49 312 -38 50 8 55 12 64 41 8 29 4 41 -40 114 -138 229 -307 355
-521 388 -75 12 -170 12 -238 2z m390 -208 c61 -24 142 -63 180 -85 73 -43
173 -131 207 -183 13 -19 4 -13 -23 16 -93 98 -179 153 -378 240 -200 88 -192
95 14 12z"/>
<path d="M8285 662 c-27 -11 -95 -40 -151 -66 -98 -45 -124 -53 -124 -40 0 4
5 25 12 47 11 35 10 41 -7 53 -49 36 -125 6 -242 -96 -85 -74 -105 -84 -96
-49 6 20 4 21 -33 14 -21 -4 -44 -8 -50 -9 -23 -4 -134 -77 -149 -99 -23 -32
-19 -37 23 -24 46 14 309 13 372 -2 36 -8 16 -9 -95 -5 -141 6 -273 -10 -299
-36 -22 -22 9 -45 60 -46 27 0 67 -4 88 -8 26 -5 41 -4 46 4 5 8 17 -1 36 -26
35 -46 100 -94 127 -94 15 0 18 5 14 26 -4 24 -1 23 42 -18 101 -97 223 -158
317 -158 48 0 59 4 85 29 21 22 29 39 29 65 0 40 -10 36 145 61 190 29 305
115 281 210 -13 51 -85 94 -206 121 -98 22 -95 20 -66 55 32 38 32 49 2 78
-34 32 -97 36 -161 13z"/>
<path d="M5386 629 c-183 -20 -446 -118 -556 -207 l-23 -19 86 -57 c167 -111
356 -190 519 -216 119 -19 331 -8 444 23 104 29 257 93 315 131 33 22 39 32
39 61 0 30 -7 40 -47 70 -68 49 -253 139 -348 168 -145 45 -293 61 -429 46z
m-209 -245 c-3 -3 -12 -4 -19 -1 -8 3 -5 6 6 6 11 1 17 -2 13 -5z m123 -19
c41 -8 118 -24 170 -36 134 -29 452 -37 599 -15 57 9 106 14 108 12 9 -8 -184
-49 -265 -55 -157 -13 -327 10 -622 83 -108 27 -102 33 10 11z"/>
</g>
</svg>
